<?xml version="1.0" encoding="UTF-8"?>
<svg version="1.1" xmlns="http://www.w3.org/2000/svg" width="864" height="1080">
<path d="M0 0 C285.12 0 570.24 0 864 0 C864 356.4 864 712.8 864 1080 C578.88 1080 293.76 1080 0 1080 C0 723.6 0 367.2 0 0 Z " fill="#0153E4" transform="translate(0,0)"/>
<path d="M0 0 C0.72056194 -0.00594224 1.44112388 -0.01188449 2.18352103 -0.0180068 C4.5985297 -0.03535288 7.01333975 -0.03839482 9.42840576 -0.04138184 C11.15984011 -0.05064023 12.89127039 -0.06068983 14.62269592 -0.07147217 C19.32739008 -0.09770561 24.03202717 -0.11060728 28.73678303 -0.11949348 C31.6770053 -0.12535757 34.61721202 -0.1335677 37.55742645 -0.14250183 C46.75928113 -0.16984848 55.96110021 -0.18918313 65.16299272 -0.19690561 C75.78043182 -0.20586533 86.39735573 -0.24095475 97.01463819 -0.2989068 C105.22455308 -0.34216106 113.43432315 -0.36231526 121.64435077 -0.36498785 C126.54641957 -0.36708258 131.44800399 -0.37886721 136.3499527 -0.41462708 C140.96304794 -0.44762512 145.5752957 -0.45188327 150.18846703 -0.43434906 C151.87831838 -0.43281016 153.56821563 -0.44147007 155.25795174 -0.46126556 C170.69969357 -0.63150863 170.69969357 -0.63150863 176.48096848 4.81415558 C177.16022825 5.54018604 177.16022825 5.54018604 177.85321045 6.28088379 C178.60731201 6.88674316 179.36141357 7.49260254 180.1383667 8.11682129 C180.72489014 8.62471191 181.31141357 9.13260254 181.91571045 9.65588379 C182.50481201 10.15861816 183.09391357 10.66135254 183.7008667 11.17932129 C185.60664535 13.04013602 187.31271394 14.94524064 189.0458374 16.9642334 C192.52285075 20.95405045 196.1665192 24.72393184 199.92352295 28.44885254 C200.5676413 29.09155594 201.21175964 29.73425934 201.87539673 30.3964386 C203.9073005 32.42281294 205.94266902 34.44566428 207.97821045 36.46838379 C209.34953822 37.83468541 210.72063382 39.20122009 212.0914917 40.56799316 C214.60715058 43.07553948 217.12412869 45.58174431 219.64276123 48.08630371 C222.38443992 50.81298619 225.11901897 53.54669231 227.85321045 56.28088379 C229.35413562 57.77471015 230.85609232 59.26749438 232.3581543 60.76017761 C234.66855831 63.05715405 236.97626098 65.35683679 239.28387451 67.65661621 C240.50304664 68.87071663 241.72310837 70.08392434 242.94403076 71.29626465 C244.71297345 73.05312698 246.47870967 74.81315644 248.24383545 76.57385254 C249.06564301 77.38791817 249.06564301 77.38791817 249.90405273 78.21842957 C253.46122374 81.77506783 254.96917574 83.49013699 255.01383972 88.49172974 C255.02388535 89.37481812 255.03393097 90.25790649 255.04428101 91.16775513 C255.050112 92.1391745 255.05594299 93.11059387 255.06195068 94.1114502 C255.07173447 95.13277039 255.08151825 96.15409058 255.09159851 97.20635986 C255.12159863 100.59837534 255.14295317 103.99035117 255.1618042 107.38244629 C255.16837603 108.54007854 255.17494785 109.6977108 255.18171883 110.89042282 C255.2143359 117.02040129 255.23877859 123.15036221 255.25823975 129.28039551 C255.27604235 134.3535699 255.31084361 139.42618737 255.36077881 144.49914551 C255.42098558 150.62232506 255.45171702 156.7449887 255.46141243 162.86845016 C255.46996921 165.20082979 255.48879259 167.53319556 255.51815605 169.86540604 C255.55710423 173.13552994 255.55809983 176.40364905 255.55023193 179.6739502 C255.57023254 180.63322418 255.59023315 181.59249817 255.61083984 182.58084106 C255.54613265 188.58889522 254.30449533 192.03855253 250.50243378 196.71073627 C244.86790715 202.07510254 237.35664035 201.698699 230.0368042 201.65197754 C227.95281811 201.66935176 225.86883377 201.68693622 223.78485107 201.70471191 C220.53066878 201.71479287 217.2765972 201.71837641 214.0223999 201.7166748 C210.86020493 201.72025168 207.69884924 201.74760821 204.5368042 201.77697754 C203.56996201 201.76879501 202.60311981 201.76061249 201.60697937 201.75218201 C195.44988792 201.81973954 191.95308798 202.8147405 186.85321045 206.28088379 C185.70852295 206.71400879 185.70852295 206.71400879 184.54071045 207.15588379 C181.90173147 208.91520311 181.65619514 211.31601723 180.85321045 214.28088379 C180.52321045 214.94088379 180.19321045 215.60088379 179.85321045 216.28088379 C179.75351685 218.21997924 179.71762666 220.16247957 179.71136475 222.10412598 C179.70433029 223.32589539 179.69729584 224.54766479 179.69004822 225.80645752 C179.68823233 226.46138939 179.68641644 227.11632126 179.68454552 227.79109955 C179.67737625 229.84291279 179.66170514 231.89448739 179.64320374 233.94622803 C179.59076589 239.78040223 179.54279201 245.61444791 179.52728271 251.44885254 C179.51717412 255.01758402 179.48777513 258.58571802 179.44596291 262.15421295 C179.42773246 264.16923863 179.43029654 266.18441789 179.43321228 268.19952393 C179.2782711 279.79716719 179.2782711 279.79716719 174.85321045 284.28088379 C170.31629758 287.84391095 167.39370545 288.78035232 161.64900208 288.77536011 C160.94644348 288.78018894 160.24388489 288.78501777 159.52003664 288.78999293 C157.17766679 288.80121949 154.83639955 288.78397967 152.49407959 288.76672363 C150.80998947 288.76887064 149.12590081 288.77275004 147.44181824 288.77822876 C142.87558705 288.78791094 138.30974771 288.77263218 133.74356389 288.75232267 C128.96089846 288.73473208 124.17824478 288.73827717 119.39555359 288.73904419 C111.3632249 288.73717191 103.33104744 288.71981908 95.29876709 288.69250488 C86.01928621 288.66106559 76.73997099 288.6505084 67.4604407 288.65197599 C57.57315825 288.6533284 47.68593946 288.63943622 37.79867625 288.62108278 C34.9536577 288.61682547 32.10864945 288.61540114 29.26362801 288.61460495 C24.78777474 288.61259142 20.31205978 288.60034384 15.83625221 288.58027267 C14.19600014 288.57444583 12.55573214 288.57196724 10.91547012 288.57312775 C8.67163531 288.57411428 6.42818369 288.56274841 4.18440247 288.54830933 C2.93026078 288.54495764 1.6761191 288.54160595 0.38397312 288.53815269 C-4.92557275 288.15127281 -8.89853593 287.3627036 -12.95928955 283.84338379 C-16.61214205 279.564328 -17.39948802 277.4385862 -17.42144775 271.8692627 C-17.42655869 271.22336685 -17.43166962 270.57747101 -17.43693542 269.91200256 C-17.45083376 267.77705616 -17.44987428 265.64243256 -17.4475708 263.50744629 C-17.45145816 262.02155436 -17.45579291 260.53566355 -17.46055603 259.04977417 C-17.46801914 255.93439127 -17.46772674 252.81912169 -17.46246338 249.70373535 C-17.45667436 245.71672609 -17.47358513 241.73018223 -17.49680805 237.74324989 C-17.51156186 234.67368876 -17.51241477 231.60423921 -17.50929832 228.5346489 C-17.5098109 227.06507827 -17.51503677 225.5955013 -17.52511024 224.12596512 C-17.53748724 222.06743687 -17.53067613 220.00980846 -17.519104 217.95129395 C-17.51973343 216.78119781 -17.52036285 215.61110168 -17.52101135 214.4055481 C-16.95155029 209.65068178 -15.1327594 207.14661341 -11.58428955 204.03088379 C-7.73628157 201.26821139 -5.67149122 201.15188528 -0.94163513 201.13612366 C-0.29825284 201.13259681 0.34512946 201.12906997 1.00800818 201.12543625 C3.17361989 201.11472332 5.33918766 201.11106378 7.50482178 201.1072998 C9.05363655 201.10099647 10.60244949 201.09423091 12.15126038 201.08703613 C15.49176977 201.07235015 18.83227208 201.06063188 22.17280006 201.05108833 C27.45454328 201.03565699 32.7362262 201.01170762 38.01792908 200.9861908 C53.03891187 200.91493313 68.05992935 200.85521014 83.08099365 200.80407715 C91.37300388 200.77577497 99.66495425 200.74039345 107.95690173 200.6974234 C113.20741128 200.67064398 118.45785311 200.65274293 123.70841753 200.64138615 C126.97659873 200.63225902 130.24469771 200.61489643 133.51283073 200.59520721 C135.0281355 200.58773477 136.54346136 200.58365084 138.05878448 200.5832119 C140.12838768 200.58212836 142.19757335 200.56887194 144.2671051 200.55262756 C145.42504483 200.54839562 146.58298456 200.54416368 147.77601337 200.5398035 C150.87521716 200.27903211 153.0217039 199.50389662 155.85321045 198.28088379 C156.84321045 198.28088379 157.83321045 198.28088379 158.85321045 198.28088379 C158.85321045 197.62088379 158.85321045 196.96088379 158.85321045 196.28088379 C159.61633545 195.53838379 160.37946045 194.79588379 161.16571045 194.03088379 C166.30869561 188.76829433 167.29773276 183.97337031 167.24139404 176.80041504 C167.246651 175.97036957 167.25190796 175.1403241 167.25732422 174.28512573 C167.27047675 171.55435097 167.26180306 168.82416399 167.25164795 166.09338379 C167.25367005 164.1881906 167.25658262 162.28299816 167.26034546 160.37780762 C167.26476238 156.39002087 167.25835808 152.40243608 167.24432373 148.41467285 C167.22723227 143.31022566 167.23707683 138.20625174 167.25504112 133.1018219 C167.26589601 129.16923474 167.26242478 125.23675927 167.25465775 121.3041687 C167.25266046 119.42235254 167.25509843 117.54052614 167.26209641 115.65872192 C167.26973895 113.02599329 167.25806764 110.39402475 167.24139404 107.76135254 C167.25050308 106.60160416 167.25050308 106.60160416 167.25979614 105.41842651 C167.20375936 100.62788165 166.39035449 97.34914092 163.85321045 93.28088379 C158.77432264 88.59267966 155.16226761 87.03128383 148.26242065 87.02932739 C147.27134097 87.02487218 147.27134097 87.02487218 146.26023948 87.02032697 C144.0478146 87.01269265 141.83565563 87.01917856 139.62322998 87.0255127 C138.03633443 87.02276253 136.44944026 87.01908247 134.86254883 87.01454163 C131.44566107 87.00643013 128.02883874 87.00426104 124.61194229 87.0064888 C119.20792542 87.00932125 113.80403937 86.99497243 108.40005493 86.97750854 C93.03338586 86.93047521 77.66672564 86.90654036 62.29998779 86.90002441 C53.81272101 86.89627364 45.32560218 86.87824298 36.83839881 86.84493005 C31.46762518 86.82471239 26.09723303 86.82234752 20.72643685 86.83321023 C17.38277039 86.83581833 14.03932579 86.82180856 10.69571686 86.8031292 C9.14696181 86.79780911 7.59816585 86.79930091 6.04942703 86.8081646 C3.93174428 86.81930542 1.8155592 86.80583443 -0.30203247 86.78640747 C-1.48595015 86.78531794 -2.66986782 86.7842284 -3.88966179 86.78310585 C-9.11048512 85.97809823 -12.17824879 83.45189262 -15.48745728 79.45091248 C-17.37008843 75.85428819 -17.6639011 73.59988201 -17.69610596 69.5604248 C-17.724702 67.58290977 -17.724702 67.58290977 -17.75387573 65.56544495 C-17.75335283 64.13855889 -17.75147849 62.71167277 -17.74835205 61.28479004 C-17.75613521 59.80797345 -17.76480645 58.3311613 -17.77432251 56.85435486 C-17.78920986 53.7651821 -17.78869198 50.67646662 -17.77813721 47.58728027 C-17.76654807 43.64148282 -17.80041924 39.69756321 -17.84682655 35.75207615 C-17.8763867 32.70380335 -17.87803359 29.65597857 -17.8718071 26.60758781 C-17.87282919 25.15359717 -17.88322346 23.69958002 -17.90343094 22.24572945 C-18.05887117 9.49984956 -18.05887117 9.49984956 -14.35137939 4.96032715 C-9.93511196 0.66625574 -6.09803889 0.0280977 0 0 Z " fill="#FDFEFE" transform="translate(313.14678955078125,395.7191162109375)"/>
<path d="M0 0 C-4.94597406 3.29731604 -8.6169734 4.24986095 -14.55918884 4.25828552 C-15.20442885 4.26196123 -15.84966885 4.26563693 -16.51446158 4.26942402 C-18.66849514 4.27937445 -20.82226904 4.27525922 -22.97631836 4.27124023 C-24.523954 4.27562897 -26.07158727 4.28093167 -27.61921692 4.28707886 C-30.94823081 4.29856805 -34.27718113 4.30403748 -37.60621452 4.30496025 C-42.87169549 4.30690257 -48.13704515 4.32496436 -53.40248108 4.34571838 C-66.4805033 4.39488346 -79.55856114 4.4257928 -92.63665771 4.44702148 C-102.8017058 4.46354631 -112.9666412 4.48636286 -123.13161379 4.53004223 C-128.36433802 4.55181233 -133.59684813 4.55987705 -138.82961452 4.55764949 C-142.08693716 4.55931754 -145.34412026 4.57337392 -148.60139275 4.59086227 C-150.10983261 4.59645617 -151.61830146 4.59695216 -153.12674332 4.59192467 C-155.18942297 4.58577156 -157.25122418 4.59803454 -159.31382751 4.61473083 C-161.04350974 4.61774783 -161.04350974 4.61774783 -162.80813503 4.62082577 C-166.41316487 5.04908148 -168.86680143 6.20908288 -172 8 C-171 5 -171 5 -168 3 C-160.74995428 1.65782134 -153.43088832 1.84122525 -146.0793457 1.82641602 C-144.6805552 1.82010017 -143.28176668 1.81333325 -141.88298035 1.80615234 C-138.8830895 1.79155092 -135.88320604 1.77979853 -132.88329506 1.77020454 C-128.12814914 1.75465694 -123.37306786 1.73070684 -118.6179657 1.70530701 C-105.10025128 1.63436051 -91.58250024 1.57445031 -78.06469727 1.52319336 C-70.58926495 1.49477388 -63.11389744 1.45933225 -55.63853329 1.41653961 C-50.92379697 1.38996431 -46.20913378 1.371939 -41.49433768 1.36050236 C-38.5447986 1.35129183 -35.59534749 1.3338917 -32.64586067 1.31432343 C-30.65293957 1.30344423 -28.65997329 1.3021054 -26.66702271 1.30119324 C-19.48460738 1.24388286 -12.68975454 0.65007574 -5.62457561 -0.67080784 C-3 -1 -3 -1 0 0 Z " fill="#1C57C4" transform="translate(472,593)"/>
<path d="M0 0 C0.33 0 0.66 0 1 0 C1.06962768 8.24090676 1.12287576 16.48168982 1.15543652 24.72281837 C1.17106708 28.549856 1.19225718 32.37669179 1.22631836 36.20361328 C1.25900562 39.8994583 1.27687263 43.59510965 1.28463173 47.2910881 C1.29015851 48.69844993 1.30095101 50.10580161 1.31719017 51.5130806 C1.33908635 53.48989706 1.34022644 55.46690996 1.34057617 57.44384766 C1.35056892 59.12929184 1.35056892 59.12929184 1.36076355 60.8487854 C0.9230907 64.67179099 0.20908912 66.82907971 -2 70 C-9.29455386 75.40519046 -17.64222616 74.53713085 -26.33007812 74.45410156 C-27.98640923 74.45297209 -29.64274233 74.45360889 -31.29907227 74.45587158 C-35.77797167 74.45701577 -40.25643959 74.43355446 -44.73523903 74.40557575 C-49.42238787 74.38051276 -54.10954741 74.37821624 -58.79675293 74.37347412 C-67.66473976 74.36105872 -76.53252854 74.32825657 -85.4004283 74.28807616 C-95.49954723 74.24331374 -105.5986758 74.22136017 -115.6978693 74.20129442 C-136.46535659 74.15952265 -157.2326658 74.08919855 -178 74 C-178 73.67 -178 73.34 -178 73 C-177.16547239 72.99668985 -176.33094479 72.99337971 -175.47112846 72.98996925 C-155.16508938 72.90874839 -134.85912496 72.81665887 -114.55319023 72.71247292 C-104.73339267 72.66235146 -94.91360343 72.61590844 -85.09375 72.578125 C-76.5347555 72.54518358 -67.97582572 72.50534041 -59.41690266 72.45720994 C-54.88504322 72.43196638 -50.3532266 72.41017873 -45.82131577 72.39665604 C-41.55482829 72.38381628 -37.28848781 72.36174116 -33.02208138 72.33261681 C-31.45721209 72.32355601 -29.89231915 72.31785429 -28.327425 72.31578636 C-26.18799621 72.3124532 -24.04898149 72.29694778 -21.90963745 72.2784729 C-20.71315016 72.27294214 -19.51666286 72.26741138 -18.28391838 72.26171303 C-14.88142997 71.99055052 -12.18276192 71.20035211 -9 70 C-7.63875 69.5978125 -7.63875 69.5978125 -6.25 69.1875 C-3.76565358 68.15930127 -3.76565358 68.15930127 -2.75 65.4375 C-2.5025 64.633125 -2.255 63.82875 -2 63 C-1.67 62.67 -1.34 62.34 -1 62 C-0.87642922 60.06776005 -0.82205542 58.13106201 -0.79467773 56.19506836 C-0.77473251 54.95385727 -0.75478729 53.71264618 -0.73423767 52.43382263 C-0.71725207 51.0691643 -0.70037331 49.70450463 -0.68359375 48.33984375 C-0.66303064 46.95121125 -0.64203434 45.5625851 -0.62062073 44.17396545 C-0.56533353 40.51285941 -0.51595374 36.85169627 -0.46777344 33.19049072 C-0.41760679 29.45702003 -0.36189554 25.72363262 -0.30664062 21.99023438 C-0.19897782 14.6602267 -0.09755106 7.33014995 0 0 Z " fill="#064CCA" transform="translate(492,612)"/>
<path d="M0 0 C0.66 0 1.32 0 2 0 C2.04630217 13.36043454 2.08185846 26.72085004 2.10362434 40.08134842 C2.11406987 46.28489258 2.12824319 52.48838192 2.15087891 58.69189453 C2.17257973 64.67651662 2.18456283 70.66108593 2.18975449 76.64574432 C2.1934552 78.93113791 2.20068157 81.21652855 2.21146011 83.50189972 C2.22593821 86.69827054 2.22797947 89.89442208 2.22705078 93.09082031 C2.23424133 94.03956528 2.24143188 94.98831024 2.24884033 95.96580505 C2.246091 96.83796158 2.24334167 97.7101181 2.24050903 98.60870361 C2.24235262 99.36457386 2.24419621 100.12044411 2.24609566 100.89921951 C1.96590988 103.29100823 1.18666444 104.92110882 0 107 C-0.66 107 -1.32 107 -2 107 C-2 108.65 -2 110.3 -2 112 C-2.99 112 -3.98 112 -5 112 C-5.33 113.32 -5.66 114.64 -6 116 C-6.99 115.67 -7.98 115.34 -9 115 C-10.66362417 114.65179959 -12.32995171 114.31595508 -14 114 C-11 112 -11 112 -8.0625 110.75 C-4.24072926 108.56613101 -3.04340016 106.90794951 -1 103 C-0.42461179 99.61822454 -0.43580651 96.28813123 -0.45410156 92.86376953 C-0.44376389 91.8582756 -0.43342621 90.85278168 -0.42277527 89.81681824 C-0.39336295 86.50531922 -0.39184838 83.19443184 -0.390625 79.8828125 C-0.37564236 77.58209061 -0.35891504 75.28137947 -0.34051514 72.98068237 C-0.29683927 66.93415837 -0.27684181 60.88777946 -0.26177979 54.84112549 C-0.24220974 48.66743388 -0.20023952 42.49389898 -0.16015625 36.3203125 C-0.08485138 24.21359 -0.03456142 12.10690257 0 0 Z " fill="#2362D8" transform="translate(568,483)"/>
<path d="M0 0 C0.72650419 -0.00482883 1.45300837 -0.00965766 2.20152783 -0.01463282 C4.62465211 -0.02586315 7.04671147 -0.00861683 9.4697876 0.00863647 C11.21125066 0.00648966 12.95271232 0.00261055 14.69416809 -0.00286865 C19.41501251 -0.01255026 24.13547792 0.00272435 28.85627651 0.02303743 C33.79476421 0.04061489 38.73324033 0.03708329 43.67175293 0.03631592 C51.96045267 0.03818788 60.24900579 0.05554155 68.53765869 0.08285522 C78.12965825 0.11434637 87.72149748 0.12484994 97.31354499 0.12338412 C106.53571538 0.12216502 115.75783342 0.13235984 124.9799881 0.14896774 C128.90818948 0.15604056 132.83637234 0.15969524 136.76457977 0.16075516 C141.38405191 0.16275892 146.0033886 0.17492644 150.62281609 0.19508743 C152.32160806 0.20094584 154.02041562 0.20338648 155.7192173 0.20223236 C158.03048646 0.20125604 160.341372 0.21251114 162.65258789 0.22705078 C163.94821026 0.23040247 165.24383263 0.23375416 166.57871628 0.23720741 C169.57232666 0.49447632 169.57232666 0.49447632 171.57232666 2.49447632 C170.66656859 2.49078915 169.76081053 2.48710197 168.82760525 2.48330307 C146.78550961 2.39495433 124.74344451 2.32876777 102.70120907 2.28722763 C92.04172849 2.26660502 81.38236613 2.23849009 70.72296143 2.19271851 C61.43189987 2.15284163 52.14092394 2.12704131 42.84977919 2.11812234 C37.93045011 2.11290906 33.01136596 2.10066208 28.0921154 2.07155609 C23.46036449 2.04437362 18.82895903 2.03603707 14.19713593 2.04204559 C12.49880915 2.04094663 10.80047062 2.03300956 9.10221291 2.01765442 C6.77895822 1.99768148 4.45699894 2.00256278 2.13371277 2.01345825 C0.83490645 2.00977108 -0.46389986 2.00608391 -1.80206394 2.002285 C-6.31808366 2.61535316 -8.672492 3.94849362 -12.42767334 6.49447632 C-12.75767334 7.15447632 -13.08767334 7.81447632 -13.42767334 8.49447632 C-14.08767334 8.49447632 -14.74767334 8.49447632 -15.42767334 8.49447632 C-12.91761444 1.46631139 -6.81246054 -0.00572218 0 0 Z " fill="#EBFDFF" transform="translate(313.42767333984375,395.5055236816406)"/>
<path d="M0 0 C20.77503099 -0.070063 41.55004251 -0.1229749 62.32516766 -0.15543652 C71.97129451 -0.17090923 81.61734798 -0.1920065 91.26342773 -0.22631836 C99.67038055 -0.2562083 108.07728022 -0.27557206 116.4842847 -0.28226548 C120.9362574 -0.28617843 125.38807806 -0.29538281 129.84000206 -0.31719017 C134.0301349 -0.33754893 138.22005303 -0.34383505 142.41023064 -0.33932304 C143.94813453 -0.34014852 145.48604558 -0.34611789 147.02390671 -0.35761642 C149.12437098 -0.37255146 151.2240255 -0.36895057 153.32450867 -0.36076355 C154.49979472 -0.36352893 155.67508078 -0.36629431 156.88598156 -0.36914349 C160.35716352 0.04233905 162.17226765 0.99514484 165 3 C166.36125 3.9590625 166.36125 3.9590625 167.75 4.9375 C170.04763274 7.04366334 170.67462254 7.96314367 171 11 C168.15956311 9.88411408 166.99089961 8.98786615 165.125 6.5 C161.963426 2.78050117 158.59539609 2.13088022 153.80978584 1.73828697 C152.65754461 1.73275621 151.50530338 1.72722546 150.31814575 1.7215271 C149.67190148 1.7157347 149.02565721 1.7099423 148.35982978 1.70397437 C146.20874773 1.687059 144.05788131 1.68410527 141.90673828 1.68115234 C140.35906961 1.6718483 138.81140594 1.66167892 137.26374817 1.65071106 C133.07209897 1.62345063 128.88048331 1.6082734 124.68876886 1.59528303 C120.30450763 1.57963517 115.92031469 1.55285022 111.53610229 1.5272522 C103.2383667 1.48049373 94.94061821 1.44373543 86.64281833 1.41057932 C77.19420729 1.37233722 67.74566489 1.32293252 58.29711175 1.27259517 C38.86479143 1.16931892 19.4324292 1.08004451 0 1 C0 0.67 0 0.34 0 0 Z " fill="#054DC8" transform="translate(309,483)"/>
<path d="M0 0 C0.66 0.33 1.32 0.66 2 1 C1.67 1.99 1.34 2.98 1 4 C0.91028673 6.22336607 0.88242147 8.44938893 0.88647461 10.67456055 C0.88632858 11.347995 0.88618256 12.02142944 0.8860321 12.715271 C0.88672825 14.93911979 0.89450668 17.16288461 0.90234375 19.38671875 C0.90420899 20.92942764 0.90563239 22.47213711 0.90663147 24.0148468 C0.91044831 28.07383868 0.92027149 32.13279473 0.93133545 36.19177246 C0.94156748 40.33422359 0.94613293 44.4766805 0.95117188 48.61914062 C0.96189449 56.74611018 0.97896093 64.87305063 1 73 C0.34 73 -0.32 73 -1 73 C-2.38769355 70.22461289 -2.18669336 67.89898358 -2.25292969 64.79370117 C-2.28255798 63.48862106 -2.31218628 62.18354095 -2.3427124 60.83891296 C-2.36966343 59.40694205 -2.39603673 57.97496017 -2.421875 56.54296875 C-2.43573494 55.82289454 -2.44959488 55.10282032 -2.46387482 54.36092567 C-2.53714743 50.54920883 -2.60469382 46.73744062 -2.66748047 42.92553711 C-2.73333858 38.99099716 -2.81796117 35.05709952 -2.9070549 31.12302685 C-2.97226051 28.09567338 -3.02368688 25.06819681 -3.07138824 22.04052162 C-3.09659837 20.59039866 -3.12694204 19.14035534 -3.16255951 17.69045067 C-3.21114093 15.65875708 -3.23833825 13.62658645 -3.26464844 11.59448242 C-3.28605896 10.43913498 -3.30746948 9.28378754 -3.32952881 8.09342957 C-2.96391145 4.66122116 -1.98128442 2.78849173 0 0 Z " fill="#2564D7" transform="translate(296,603)"/>
<path d="M0 0 C0.66 0 1.32 0 2 0 C1.83792557 0.53455811 1.67585114 1.06911621 1.50886536 1.61987305 C0.89500154 4.49111158 0.86761396 7.14452615 0.8581543 10.08203125 C0.85111984 11.31010498 0.84408539 12.53817871 0.83683777 13.8034668 C0.83502188 14.45664886 0.83320599 15.10983093 0.83133507 15.7828064 C0.82414256 17.83422931 0.80845742 19.88541678 0.78999329 21.93676758 C0.73764106 27.76738343 0.68952418 33.59786484 0.67407227 39.42871094 C0.66399003 42.99974056 0.63466795 46.57016875 0.59275246 50.14096069 C0.58044792 51.49965873 0.57532023 52.85844168 0.57755089 54.2171936 C0.57990399 56.11751655 0.55554511 58.01781565 0.5300293 59.91796875 C0.52416306 60.99844482 0.51829681 62.0789209 0.51225281 63.19213867 C-0.11427058 66.62636251 -1.34816186 67.81600502 -4 70 C-3.83858017 69.12967636 -3.67716034 68.25935272 -3.510849 67.36265564 C-3.03797883 64.24999504 -2.85698614 61.34121599 -2.82641602 58.19750977 C-2.80618126 56.52030602 -2.80618126 56.52030602 -2.78553772 54.80921936 C-2.77509933 53.61534103 -2.76466095 52.42146271 -2.75390625 51.19140625 C-2.72097639 48.64517874 -2.68776461 46.09895487 -2.65429688 43.55273438 C-2.60686344 39.55235106 -2.561969 35.55198888 -2.52319336 31.55151367 C-2.48342219 27.68132676 -2.43190137 23.81143154 -2.37890625 19.94140625 C-2.3704921 18.74955215 -2.36207794 17.55769806 -2.35340881 16.32972717 C-2.26713991 10.51718699 -1.98908 5.48277789 0 0 Z " fill="#BED8F9" transform="translate(492,608)"/>
<path d="M0 0 C0.33 0 0.66 0 1 0 C1.06962768 8.24090676 1.12287576 16.48168982 1.15543652 24.72281837 C1.17106708 28.549856 1.19225718 32.37669179 1.22631836 36.20361328 C1.25900562 39.8994583 1.27687263 43.59510965 1.28463173 47.2910881 C1.29015851 48.69844993 1.30095101 50.10580161 1.31719017 51.5130806 C1.33908635 53.48989706 1.34022644 55.46690996 1.34057617 57.44384766 C1.34723801 58.56747711 1.35389984 59.69110657 1.36076355 60.8487854 C0.87740373 65.07085975 -0.41254445 68.65111634 -3.70898438 71.45214844 C-9.08811832 74.04137923 -13.57677409 74.50082064 -19.5 74.25 C-20.32242187 74.23195313 -21.14484375 74.21390625 -21.9921875 74.1953125 C-23.99530804 74.1487283 -25.99781821 74.07700699 -28 74 C-28 73.67 -28 73.34 -28 73 C-26.12054688 72.83564453 -26.12054688 72.83564453 -24.203125 72.66796875 C-22.55201806 72.50848683 -20.90097975 72.34829327 -19.25 72.1875 C-18.0125 72.08211914 -18.0125 72.08211914 -16.75 71.97460938 C-12.28377965 71.52438555 -9.41439513 71.14710662 -6 68 C-5.34 68 -4.68 68 -4 68 C-3.690625 67.195625 -3.38125 66.39125 -3.0625 65.5625 C-2 63 -2 63 -1 62 C-0.87642922 60.06776005 -0.82205542 58.13106201 -0.79467773 56.19506836 C-0.77473251 54.95385727 -0.75478729 53.71264618 -0.73423767 52.43382263 C-0.71725207 51.0691643 -0.70037331 49.70450463 -0.68359375 48.33984375 C-0.66303064 46.95121125 -0.64203434 45.5625851 -0.62062073 44.17396545 C-0.56533353 40.51285941 -0.51595374 36.85169627 -0.46777344 33.19049072 C-0.41760679 29.45702003 -0.36189554 25.72363262 -0.30664062 21.99023438 C-0.19897782 14.6602267 -0.09755106 7.33014995 0 0 Z " fill="#1657CC" transform="translate(492,612)"/>
<path d="M0 0 C-0.61277612 2.96175123 -1.25372522 4.38058783 -3 7 C-3.99 7 -4.98 7 -6 7 C-6.02315879 15.42313188 -6.04093317 23.84625048 -6.05181217 32.26940632 C-6.05703324 36.18051083 -6.06411685 40.09159357 -6.07543945 44.00268555 C-6.08629584 47.77630515 -6.09228269 51.54990381 -6.09487724 55.32353783 C-6.09672652 56.76405352 -6.10033762 58.20456806 -6.10573006 59.64507484 C-6.11297686 61.6609142 -6.11340837 63.67677458 -6.11352539 65.69262695 C-6.115746 66.84068314 -6.11796661 67.98873932 -6.12025452 69.17158508 C-6.12681725 72.07895488 -6.12681725 72.07895488 -5 75 C-4.34 75.33 -3.68 75.66 -3 76 C-3 77.32 -3 78.64 -3 80 C-2.01 80.33 -1.02 80.66 0 81 C-0.495 81.99 -0.495 81.99 -1 83 C-7.88202681 76.29907915 -7.88202681 76.29907915 -8.26069641 72.12930298 C-8.2653038 70.96079803 -8.26991119 69.79229309 -8.2746582 68.58837891 C-8.27976913 67.94248306 -8.28488007 67.29658722 -8.29014587 66.63111877 C-8.30404421 64.49617237 -8.30308473 62.36154877 -8.30078125 60.2265625 C-8.30466861 58.74067057 -8.30900336 57.25477976 -8.31376648 55.76889038 C-8.32122959 52.65350749 -8.32093719 49.5382379 -8.31567383 46.42285156 C-8.30988481 42.4358423 -8.32679558 38.44929844 -8.3500185 34.4623661 C-8.36477231 31.39280497 -8.36562522 28.32335542 -8.36250877 25.25376511 C-8.36302135 23.78419448 -8.36824722 22.31461751 -8.37832069 20.84508133 C-8.39069769 18.78655308 -8.38388658 16.72892467 -8.37231445 14.67041016 C-8.37294388 13.50031403 -8.3735733 12.3302179 -8.3742218 11.12466431 C-7.85357418 6.77737875 -5.13136715 0 0 0 Z " fill="#E2F8FE" transform="translate(304,599)"/>
<path d="M0 0 C0.33 0 0.66 0 1 0 C1.11610386 11.05745764 1.20482186 22.11476908 1.25906086 33.17271328 C1.28509953 38.30798895 1.32039265 43.44284605 1.37719727 48.57788086 C1.4317217 53.53811288 1.4614636 58.49794354 1.47438622 63.45845222 C1.48358951 65.34622575 1.5015614 67.23397853 1.52865028 69.12158012 C1.79925324 88.76784612 1.79925324 88.76784612 -4 95 C-5.485 95.99 -5.485 95.99 -7 97 C-6.6453499 93.80814911 -6.38778183 92.36354547 -4 90.125 C0.13988858 85.72636839 -0.84010148 78.54884435 -0.79467773 72.76977539 C-0.78477814 71.97871399 -0.77487854 71.18765259 -0.76467896 70.37261963 C-0.73331553 67.78099468 -0.70840701 65.18935147 -0.68359375 62.59765625 C-0.66300244 60.79161629 -0.64200542 58.98558091 -0.62062073 57.17955017 C-0.56562474 52.44334645 -0.51611705 47.70710087 -0.46777344 42.9708252 C-0.41739356 38.13090319 -0.36179384 33.29104142 -0.30664062 28.45117188 C-0.19933424 18.96749946 -0.09782901 9.48377458 0 0 Z " fill="#0D50C5" transform="translate(480,495)"/>
<path d="M0 0 C0.66 0.33 1.32 0.66 2 1 C1.5155542 2.19616943 1.0311084 3.39233887 0.53198242 4.62475586 C-1.58598811 11.01414722 -1.47802424 17.32833063 -1.51171875 24.00390625 C-1.52966995 25.32293442 -1.54762115 26.64196259 -1.56611633 28.0009613 C-1.61327391 31.4778251 -1.64330299 34.95462559 -1.66955566 38.43170166 C-1.69953592 41.99170429 -1.74600536 45.55148942 -1.79101562 49.11132812 C-1.87665785 56.07409408 -1.94417509 63.03693278 -2 70 C-2.33 70 -2.66 70 -3 70 C-3.06962768 61.75909324 -3.12287576 53.51831018 -3.15543652 45.27718163 C-3.17106708 41.450144 -3.19225718 37.62330821 -3.22631836 33.79638672 C-3.25900562 30.1005417 -3.27687263 26.40489035 -3.28463173 22.7089119 C-3.29015851 21.30155007 -3.30095101 19.89419839 -3.31719017 18.4869194 C-3.33908635 16.51010294 -3.34022644 14.53309004 -3.34057617 12.55615234 C-3.34723801 11.43252289 -3.35389984 10.30889343 -3.36076355 9.1512146 C-2.94950316 5.55891777 -1.78170577 3.1209865 0 0 Z " fill="#0751D4" transform="translate(496,604)"/>
<path d="M0 0 C0.66 0.99 1.32 1.98 2 3 C1.34 3 0.68 3 0 3 C0 4.65 0 6.3 0 8 C-0.99 8 -1.98 8 -3 8 C-3.33 9.32 -3.66 10.64 -4 12 C-4.99 11.67 -5.98 11.34 -7 11 C-8.66362417 10.65179959 -10.32995171 10.31595508 -12 10 C-9 8 -9 8 -6 6.6875 C-2.69791174 4.83007535 -1.63300635 3.35673528 0 0 Z " fill="#2464D5" transform="translate(566,587)"/>
<path d="M0 0 C6.05818382 0.21256785 9.11850724 1.31457703 13.65234375 5.33203125 C15.16830127 7.20830331 15.59619488 8.64361823 16 11 C13.19710477 9.89886259 12.03745534 9.05216994 10.25 6.5625 C7.1790624 3.06504328 4.40349463 2.39443997 0 1 C0 0.67 0 0.34 0 0 Z " fill="#235CC8" transform="translate(464,483)"/>
<path d="M0 0 C-0.61277612 2.96175123 -1.25372522 4.38058783 -3 7 C-3.99 7 -4.98 7 -6 7 C-6.33 7.99 -6.66 8.98 -7 10 C-7.33 9.34 -7.66 8.68 -8 8 C-3.8974359 0 -3.8974359 0 0 0 Z " fill="#C4DDFA" transform="translate(304,599)"/>
<path d="M0 0 C0.59554688 0.19980469 1.19109375 0.39960938 1.8046875 0.60546875 C1.16660156 0.94320313 0.52851563 1.2809375 -0.12890625 1.62890625 C-0.95519531 2.07492187 -1.78148437 2.5209375 -2.6328125 2.98046875 C-3.45652344 3.42132813 -4.28023438 3.8621875 -5.12890625 4.31640625 C-7.32997828 5.43965434 -7.32997828 5.43965434 -8.1953125 7.60546875 C-8.8553125 7.60546875 -9.5153125 7.60546875 -10.1953125 7.60546875 C-8.66294824 3.31484882 -4.84942721 -0.87151628 0 0 Z " fill="#C6DFFB" transform="translate(308.1953125,396.39453125)"/>
<path d="M0 0 C-1.7578125 0.9765625 -3.515625 1.953125 -5.2734375 2.9296875 C-7.1612614 4.00897274 -7.1612614 4.00897274 -9 6 C-9.99 6 -10.98 6 -12 6 C-12 5.34 -12 4.68 -12 4 C-11.01 4 -10.02 4 -9 4 C-8.731875 3.360625 -8.46375 2.72125 -8.1875 2.0625 C-6.08556352 -1.58823178 -3.58713791 -1.1132497 0 0 Z " fill="#D6EFFE" transform="translate(507,598)"/>
<path d="M0 0 C1.14926266 0.95421808 2.29430541 1.91352045 3.4375 2.875 C4.07558594 3.40867187 4.71367188 3.94234375 5.37109375 4.4921875 C7 6 7 6 8 8 C5.6875 7.8125 5.6875 7.8125 3 7 C0 2.96551724 0 2.96551724 0 0 Z " fill="#E0F8FE" transform="translate(551,463)"/>
<path d="M0 0 C3.11954738 0.33724836 4.6209965 0.6209965 6.875 2.875 C7.24625 3.57625 7.6175 4.2775 8 5 C7.67 5.99 7.34 6.98 7 8 C5.83035398 6.8572081 4.66435444 5.71068285 3.5 4.5625 C2.8503125 3.92441406 2.200625 3.28632813 1.53125 2.62890625 C0 1 0 1 0 0 Z " fill="#2960D0" transform="translate(511,422)"/>
<path d="M0 0 C0 3.39593478 -0.52165948 4.06619881 -2.5 6.6875 C-2.9640625 7.31011719 -3.428125 7.93273437 -3.90625 8.57421875 C-4.2671875 9.04472656 -4.628125 9.51523437 -5 10 C-5.33 9.01 -5.66 8.02 -6 7 C-4.78515625 5.17578125 -4.78515625 5.17578125 -3.0625 3.3125 C-2.49660156 2.68988281 -1.93070312 2.06726563 -1.34765625 1.42578125 C-0.90292969 0.95527344 -0.45820313 0.48476563 0 0 Z " fill="#1E5BC8" transform="translate(479,582)"/>
<path d="M0 0 C0.6875 1.75 0.6875 1.75 1 4 C-0.43407725 6.64172124 -1.3211374 7.76724711 -4.1875 8.75 C-5.0846875 8.87375 -5.0846875 8.87375 -6 9 C-6 7 -6 7 -3.5625 4.5 C-2.716875 3.675 -1.87125 2.85 -1 2 C-0.67 1.34 -0.34 0.68 0 0 Z " fill="#C5E4FB" transform="translate(478,585)"/>
<path d="M0 0 C3.43595166 1.52708963 6.11912454 3.59927045 9 6 C8.01 6.33 7.02 6.66 6 7 C6 6.34 6 5.68 6 5 C5.01 5 4.02 5 3 5 C3 4.34 3 3.68 3 3 C2.01 2.67 1.02 2.34 0 2 C0 1.34 0 0.68 0 0 Z " fill="#1858C7" transform="translate(297,476)"/>
<path d="M0 0 C0.66 0.99 1.32 1.98 2 3 C1.34 3 0.68 3 0 3 C0 4.65 0 6.3 0 8 C-1.32 7.34 -2.64 6.68 -4 6 C-2.68 4.02 -1.36 2.04 0 0 Z " fill="#2E6AD9" transform="translate(566,587)"/>
</svg>
