<?xml version="1.0" encoding="UTF-8"?>
<svg version="1.1" xmlns="http://www.w3.org/2000/svg" width="864" height="1080">
<path d="M0 0 C285.12 0 570.24 0 864 0 C864 356.4 864 712.8 864 1080 C578.88 1080 293.76 1080 0 1080 C0 723.6 0 367.2 0 0 Z " fill="#FEFEFE" transform="translate(0,0)"/>
<path d="M0 0 C0.70426744 -0.00453111 1.40853489 -0.00906223 2.13414377 -0.01373065 C4.46998591 -0.0262879 6.8055923 -0.02476 9.14146423 -0.02310181 C10.82584937 -0.02909226 12.51023177 -0.03589899 14.1946106 -0.04345703 C18.75232755 -0.06106581 23.30996934 -0.06581008 27.86771703 -0.0670886 C30.71749793 -0.06851299 33.56725988 -0.07278791 36.41703606 -0.07808304 C46.36490462 -0.09656219 56.3127197 -0.10475578 66.26060486 -0.10317993 C75.52541685 -0.1019772 84.7899964 -0.12311081 94.05474955 -0.15466726 C102.01929666 -0.18082613 109.98376778 -0.19154748 117.94835752 -0.19026911 C122.70098684 -0.18975962 127.45340915 -0.19543654 132.20599556 -0.21662521 C136.67373636 -0.23600256 141.14107244 -0.23613562 145.60882759 -0.22159195 C147.24587089 -0.21950254 148.88293951 -0.22421267 150.51993942 -0.23631287 C152.75961597 -0.25179286 154.99790139 -0.24244108 157.23754883 -0.22705078 C159.1148649 -0.22868508 159.1148649 -0.22868508 161.03010654 -0.2303524 C170.71403808 1.13708214 177.69353489 9.01736916 183.55528259 16.26742554 C185.20928623 17.94665974 186.87771115 19.61173546 188.55528259 21.26742554 C206.55528259 39.26742554 224.55528259 57.26742554 242.55528259 75.26742554 C243.85852478 76.53973022 243.85852478 76.53973022 245.18809509 77.83773804 C250.92371199 83.72479036 250.92371199 83.72479036 250.9564209 88.71878052 C250.96921585 89.60461823 250.9820108 90.49045593 250.99519348 91.40313721 C250.99383392 92.36736603 250.99247437 93.33159485 250.99107361 94.32504272 C251.00114944 95.34665497 251.01122528 96.36826721 251.02160645 97.4208374 C251.05012937 100.8021028 251.05596569 104.18292228 251.05918884 107.56430054 C251.06882846 109.91596663 251.07892082 112.26763092 251.08944702 114.61929321 C251.10742036 119.5521766 251.11296695 124.48490233 251.1111908 129.41781616 C251.11088624 135.73081967 251.15180822 142.04280852 251.20350742 148.35557175 C251.23691192 153.21471778 251.24294705 158.07361987 251.24136162 162.93286896 C251.24489662 165.25964092 251.25813761 167.58641954 251.28135872 169.91307831 C251.31084712 173.1735112 251.30209419 176.43176005 251.28404236 179.69223022 C251.30090088 180.64836212 251.3177594 181.60449402 251.33512878 182.58959961 C251.25106272 188.58294805 249.99385279 192.03367219 246.20472527 196.6963768 C240.63533465 202.00106803 233.20210901 201.69688722 225.95762634 201.67367554 C224.46798119 201.68992981 224.46798119 201.68992981 222.94824219 201.70651245 C218.73128215 201.75209113 214.51438796 201.76383521 210.29722595 201.77865601 C207.20464023 201.79439678 204.11255931 201.8273999 201.02012634 201.86117554 C200.07515793 201.8581543 199.13018951 201.85513306 198.15658569 201.85202026 C191.1343887 201.93138722 186.26916049 202.9236219 180.80528259 207.64242554 C176.87076241 212.23269908 175.18347077 215.33516046 175.15464783 221.44711304 C175.14130905 222.67188354 175.12797028 223.89665405 175.11422729 225.15853882 C175.11411148 226.47322144 175.11399567 227.78790405 175.11387634 229.14242554 C175.1020952 230.51337082 175.08872916 231.88430332 175.07385254 233.25521851 C175.03773355 236.85685248 175.01748628 240.45837312 175.00230408 244.06015015 C174.97743889 249.82441034 174.93768037 255.58842002 174.88040352 261.35244751 C174.8641362 263.36035118 174.86065993 265.36834535 174.85739136 267.37631226 C174.84211143 269.21346802 174.84211143 269.21346802 174.82652283 271.08773804 C174.82224777 272.16297729 174.81797272 273.23821655 174.81356812 274.34603882 C174.5481505 277.34809446 173.8200976 279.54779352 172.55528259 282.26742554 C171.89528259 282.26742554 171.23528259 282.26742554 170.55528259 282.26742554 C170.55528259 282.92742554 170.55528259 283.58742554 170.55528259 284.26742554 C165.49309876 287.55068986 162.28188604 288.76806731 156.11019897 288.77536011 C155.03564511 288.78472005 155.03564511 288.78472005 153.93938309 288.79426908 C151.55636882 288.81013152 149.1743871 288.79762235 146.79136658 288.78500366 C145.07594713 288.79042777 143.36053234 288.79755205 141.64512634 288.8062439 C136.99847529 288.82444456 132.35218036 288.81742358 127.70552325 288.80472755 C122.83829985 288.79458464 117.97110647 288.80399667 113.10388184 288.81027222 C104.93210894 288.81754416 96.76048077 288.80797207 88.58872986 288.78890991 C79.1449663 288.76713476 69.7015481 288.77419902 60.25779289 288.79621553 C52.14379467 288.81437374 44.02990034 288.81692602 35.91588837 288.80646086 C31.07219886 288.80022918 26.22867164 288.7993815 21.3849926 288.81260681 C16.8318733 288.82417105 12.27919892 288.81612916 7.72612762 288.79302979 C6.05642752 288.78774607 4.38668989 288.78925073 2.71700478 288.79808044 C0.4352939 288.80903327 -1.84499674 288.79527763 -4.12661743 288.77536011 C-5.40250512 288.77385201 -6.67839281 288.7723439 -7.99294376 288.7707901 C-13.34787624 287.98989207 -16.39264503 285.53888904 -19.78637695 281.43745422 C-21.66983084 277.83710615 -21.95648221 275.58996198 -21.97816467 271.54696655 C-21.99400101 270.2286232 -22.00983734 268.91027985 -22.02615356 267.55198669 C-22.02231162 266.1250981 -22.01727231 264.6982123 -22.01112366 263.27133179 C-22.01636414 261.79451609 -22.02264218 260.31770374 -22.02990723 258.84089661 C-22.04029262 255.75171108 -22.03577772 252.66298671 -22.02113342 249.57382202 C-22.00395385 245.62821396 -22.02743808 241.68406337 -22.06262302 237.7386179 C-22.08465656 234.69035823 -22.08314128 231.64244408 -22.07485771 228.59412956 C-22.07404131 227.14016052 -22.08084493 225.68616531 -22.09562874 224.23227119 C-22.20522937 211.50298717 -22.20522937 211.50298717 -19.34291077 207.0093689 C-11.98364694 200.0468643 -4.04384663 200.83417459 5.59092712 200.86679077 C7.12077876 200.86104321 8.65062587 200.85395837 10.1804657 200.84564209 C13.4647301 200.83056829 16.74883235 200.8247513 20.03313065 200.82616997 C25.22711936 200.82820816 30.42089075 200.80860774 35.61482239 200.78599548 C45.69946249 200.74507292 55.78408526 200.72642453 65.86878967 200.70982361 C78.7127012 200.68744746 91.55656237 200.65393416 104.40039146 200.60262448 C109.56311514 200.58271007 114.7257246 200.57312338 119.88848519 200.57167232 C123.0987442 200.5689216 126.3089401 200.55809106 129.51917267 200.5451622 C131.0070754 200.54088377 132.49499249 200.54002168 133.98289871 200.54283714 C136.01485451 200.54624096 138.04681959 200.53630706 140.07875061 200.52571106 C141.78379603 200.52325961 141.78379603 200.52325961 143.52328682 200.52075863 C146.60126765 200.26358334 148.74145619 199.4801924 151.55528259 198.26742554 C152.54528259 198.26742554 153.53528259 198.26742554 154.55528259 198.26742554 C154.55528259 197.60742554 154.55528259 196.94742554 154.55528259 196.26742554 C155.31840759 195.52492554 156.08153259 194.78242554 156.86778259 194.01742554 C162.7938098 187.95358374 163.70152022 181.82960468 163.73228455 173.70419312 C163.74214134 172.5692038 163.74214134 172.5692038 163.75219727 171.4112854 C163.77187818 168.91150808 163.78358244 166.41179076 163.79356384 163.91195679 C163.79763937 163.05528601 163.8017149 162.19861523 163.80591393 161.31598473 C163.82675445 156.77986265 163.84106378 152.24377063 163.85044861 147.70761108 C163.861497 143.03829895 163.89588438 138.36946546 163.93562031 133.70032215 C163.96185229 130.0961879 163.97014636 126.49216648 163.97373009 122.88794518 C163.97858059 121.16766828 163.99015045 119.4473959 164.00876808 117.72721291 C164.38691292 104.89238424 164.38691292 104.89238424 159.55528259 93.26742554 C154.59019958 88.30234252 149.78085318 87.01783905 142.88220215 87.01586914 C141.89596616 87.01141393 141.89596616 87.01141393 140.88980621 87.00686872 C138.69430579 86.99925128 136.49907468 87.00571332 134.30357361 87.01205444 C132.72638264 87.0093035 131.14919306 87.00562298 129.57200623 87.00108337 C126.1791452 86.99297915 122.78635006 86.99080095 119.3934803 86.99303055 C114.0271886 86.99586552 108.66102836 86.9815051 103.29476929 86.96405029 C88.03649361 86.91703996 72.77822709 86.89308033 57.5198822 86.88656616 C49.09010642 86.88281538 40.6604796 86.86478589 32.23076767 86.8314718 C26.89762559 86.81125761 21.56486769 86.80888739 16.23170292 86.81975198 C12.91207287 86.8223601 9.59266628 86.80835043 6.27309418 86.78967094 C4.73562624 86.78435115 3.1981171 86.78584218 1.66066551 86.79470634 C-0.44164078 86.80584814 -2.54243874 86.79237525 -4.64465332 86.77294922 C-5.81989783 86.77185968 -6.99514235 86.77077015 -8.20600033 86.7696476 C-13.41678138 85.96162111 -16.4860759 83.42742622 -19.78736877 79.43270874 C-21.66202991 75.85239179 -21.95108438 73.64273263 -21.96229553 69.62289429 C-21.97490417 68.32134399 -21.98751282 67.0197937 -22.00050354 65.67880249 C-21.99334328 64.27083796 -21.98513918 62.8628784 -21.97596741 61.45492554 C-21.97866505 59.9981358 -21.98254974 58.54134782 -21.98756409 57.08456421 C-21.99344645 54.03824645 -21.9849377 50.99239932 -21.96620178 47.94613647 C-21.94341211 44.0521549 -21.9565421 40.15927624 -21.98049164 36.26533508 C-21.99498433 33.25916314 -21.99032794 30.2532503 -21.97998047 27.24707031 C-21.97732272 25.81182727 -21.98054931 24.37656027 -21.98989868 22.94134521 C-22.00011955 20.931554 -21.98176453 18.92167969 -21.96229553 16.91195679 C-21.95911316 15.77089478 -21.95593079 14.62983276 -21.95265198 13.45419312 C-21.32992633 9.54722946 -19.91749611 7.3216527 -17.44471741 4.26742554 C-16.78471741 4.26742554 -16.12471741 4.26742554 -15.44471741 4.26742554 C-15.44471741 3.60742554 -15.44471741 2.94742554 -15.44471741 2.26742554 C-10.14874399 0.79418922 -5.53545886 0.01481973 0 0 Z " fill="#1C2A33" transform="translate(317.44471740722656,395.7325744628906)"/>
<path d="M0 0 C0.72620041 0.16076523 1.45240082 0.32153046 2.2006073 0.48716736 C4.79118204 0.96174575 7.16235021 1.15464587 9.7902832 1.20532227 C11.17114861 1.2352401 11.17114861 1.2352401 12.57991028 1.26576233 C13.5602977 1.28247482 14.54068512 1.29918732 15.55078125 1.31640625 C16.56472458 1.33718735 17.57866791 1.35796844 18.62333679 1.37937927 C21.85299085 1.44461114 25.08272421 1.50363702 28.3125 1.5625 C30.50586748 1.60571029 32.69922703 1.64932538 34.89257812 1.69335938 C40.26163562 1.80026544 45.6307715 1.90208021 51 2 C51 2.33 51 2.66 51 3 C50.43925278 3.00586624 49.87850555 3.01173248 49.30076599 3.01777649 C43.4439182 3.08190378 37.5876101 3.16637255 31.73120117 3.26245117 C29.5480055 3.29562552 27.36472561 3.3236806 25.18139648 3.34643555 C22.03593183 3.38011904 18.89123376 3.43244276 15.74609375 3.48828125 C14.29099648 3.49786613 14.29099648 3.49786613 12.8065033 3.50764465 C7.10377902 3.63028422 3.07630568 4.36931799 -2 7 C-2.99 7.495 -2.99 7.495 -4 8 C-3.67 6.35 -3.34 4.7 -3 3 C-2.01 2.67 -1.02 2.34 0 2 C0 1.34 0 0.68 0 0 Z " fill="#333B41" transform="translate(503,594)"/>
<path d="M0 0 C1.32 0.66 2.64 1.32 4 2 C1.51047079 4.66735273 -0.63408134 6.55746343 -4 8 C-3.67 6.35 -3.34 4.7 -3 3 C-2.01 2.67 -1.02 2.34 0 2 C0 1.34 0 0.68 0 0 Z " fill="#29353D" transform="translate(503,594)"/>
<path d="M0 0 C2.92879371 0.62759865 5.36095629 1.58622659 8 3 C8 3.66 8 4.32 8 5 C8.66 5 9.32 5 10 5 C9.67 6.32 9.34 7.64 9 9 C7.68412059 7.87895467 6.37239647 6.75303035 5.0625 5.625 C4.33160156 4.99851562 3.60070312 4.37203125 2.84765625 3.7265625 C1 2 1 2 0 0 Z " fill="#343F42" transform="translate(472,484)"/>
<path d="M0 0 C0.66 0.99 1.32 1.98 2 3 C1.125 5.6875 1.125 5.6875 0 8 C-0.99 8 -1.98 8 -3 8 C-3 6.68 -3 5.36 -3 4 C-2.34 3.67 -1.68 3.34 -1 3 C-0.67 2.01 -0.34 1.02 0 0 Z " fill="#253038" transform="translate(564,584)"/>
<path d="M0 0 C0.66 0.33 1.32 0.66 2 1 C-0.64 3.64 -3.28 6.28 -6 9 C-6 6 -6 6 -3.5625 3.375 C-2.716875 2.59125 -1.87125 1.8075 -1 1 C-0.67 0.67 -0.34 0.34 0 0 Z " fill="#D0D6D9" transform="translate(501,600)"/>
<path d="M0 0 C0.66 0.33 1.32 0.66 2 1 C2 5 2 5 0 8 C-0.66 8 -1.32 8 -2 8 C-1.125 1.125 -1.125 1.125 0 0 Z " fill="#17232A" transform="translate(299,403)"/>
<path d="M0 0 C1.5625 1.1875 1.5625 1.1875 3 3 C2.6875 5.6875 2.6875 5.6875 2 8 C1.01 8 0.02 8 -1 8 C-1.125 2.25 -1.125 2.25 0 0 Z " fill="#283639" transform="translate(490,608)"/>
<path d="M0 0 C0.66 0.33 1.32 0.66 2 1 C1.34 2.32 0.68 3.64 0 5 C-1.9375 4.625 -1.9375 4.625 -4 4 C-4.33 3.34 -4.66 2.68 -5 2 C-2.625 0.9375 -2.625 0.9375 0 0 Z " fill="#3D464A" transform="translate(469,594)"/>
<path d="M0 0 C0.66 0.33 1.32 0.66 2 1 C1.34 2.65 0.68 4.3 0 6 C-1.32 6 -2.64 6 -4 6 C-3.34 4.68 -2.68 3.36 -2 2 C-1.34 2 -0.68 2 0 2 C0 1.34 0 0.68 0 0 Z " fill="#414A51" transform="translate(302,398)"/>
</svg>
