<?xml version="1.0" encoding="UTF-8"?>
<svg version="1.1" xmlns="http://www.w3.org/2000/svg" width="864" height="1080">
<path d="M0 0 C285.12 0 570.24 0 864 0 C864 356.4 864 712.8 864 1080 C578.88 1080 293.76 1080 0 1080 C0 723.6 0 367.2 0 0 Z " fill="#000000" transform="translate(0,0)"/>
<path d="M0 0 C0.71350727 -0.00649895 1.42701453 -0.0129979 2.16214323 -0.01969379 C4.55937822 -0.04011565 6.9565963 -0.05331487 9.35388184 -0.06639099 C11.07044713 -0.07920283 12.78701003 -0.09233832 14.50357056 -0.10577393 C30.18562809 -0.22175197 45.86832136 -0.27832951 61.55072784 -0.32254124 C73.13829433 -0.35575933 84.72507743 -0.41527319 96.31230783 -0.51005226 C104.46447916 -0.57447304 112.61643758 -0.60809195 120.76885366 -0.61929077 C125.63491065 -0.62683767 130.50002144 -0.6479024 135.36579895 -0.70231819 C139.94948708 -0.75297265 144.53173386 -0.76529782 149.11565781 -0.74906731 C150.79138854 -0.74966819 152.46718194 -0.76380795 154.14265823 -0.79301453 C163.66060697 -0.95015604 170.33042567 -0.25108966 177.95482635 6.13919163 C180.55809617 8.68994709 182.80292763 11.2899023 185.03161621 14.17408752 C185.85661621 14.83408752 186.68161621 15.49408752 187.53161621 16.17408752 C190.49030557 18.54103901 192.63843254 21.24243752 195.03161621 24.17408752 C197.66901648 26.94673909 200.36529679 29.47014095 203.34411621 31.86158752 C204.67442871 33.00627502 204.67442871 33.00627502 206.03161621 34.17408752 C206.03161621 34.83408752 206.03161621 35.49408752 206.03161621 36.17408752 C206.60911621 36.40096252 207.18661621 36.62783752 207.78161621 36.86158752 C210.62753002 38.52170391 212.03003542 40.5659671 214.03161621 43.17408752 C217.40722952 46.65356585 220.92701652 49.93399791 224.53161621 53.17408752 C229.87411828 57.97633657 234.8757845 62.8545559 239.40661621 68.42799377 C242.04334361 71.26120808 245.19450643 73.51903588 248.23872375 75.90118408 C254.93829587 82.47000316 254.9246727 89.35434419 255.02219868 98.20946789 C255.01469924 101.60077513 254.96775823 104.99018297 254.91833496 108.38111877 C254.91101954 110.75380722 254.90682127 113.12650714 254.90559387 115.49920654 C254.89485673 120.45635468 254.85786328 125.41233825 254.79992676 130.36915588 C254.72617255 136.72242296 254.70067252 143.07469356 254.69250774 149.42834949 C254.68392541 154.3208707 254.6588093 159.21318577 254.62775612 164.1056118 C254.61318668 166.44876605 254.60169176 168.7919415 254.59332848 171.13512611 C254.5774142 174.40474842 254.54139472 177.67351158 254.49914551 180.94288635 C254.49647171 182.39314964 254.49647171 182.39314964 254.4937439 183.87271118 C254.40777381 188.76574756 254.26402647 192.22755704 251.03161621 196.17408752 C249.09411621 197.50221252 249.09411621 197.50221252 247.03161621 198.42408752 C246.35099121 198.73861877 245.67036621 199.05315002 244.96911621 199.37721252 C241.69351663 200.72443493 239.09372153 201.3028853 235.57946777 201.33180237 C234.68133362 201.34206451 233.78319946 201.35232666 232.85784912 201.36289978 C231.88909851 201.37020111 230.9203479 201.37750244 229.92224121 201.38502502 C227.86754583 201.41309983 225.81285844 201.44176434 223.75817871 201.47096252 C220.52152788 201.51216875 217.28502518 201.54905973 214.04821777 201.57545471 C210.92257927 201.60314903 207.79761708 201.64902706 204.67224121 201.69752502 C203.71158752 201.70077789 202.75093384 201.70403076 201.76116943 201.7073822 C194.72343124 201.83539909 189.86319379 202.85734223 184.28161621 207.42408752 C178.23745956 214.8113901 178.56530749 221.97596611 178.51989746 231.20143127 C178.50303022 232.559078 178.48487725 233.9167093 178.46549988 235.27432251 C178.41821498 238.82684 178.38826739 242.37929494 178.36206055 245.93202209 C178.33214559 249.56557055 178.28565319 253.19890394 178.24060059 256.83229065 C178.15481292 263.9460994 178.08735932 271.05997469 178.03161621 278.17408752 C177.37161621 278.17408752 176.71161621 278.17408752 176.03161621 278.17408752 C176.01099121 278.89596252 175.99036621 279.61783752 175.96911621 280.36158752 C174.87401246 283.64689877 173.44479737 285.19152277 170.58751678 287.12070084 C164.60733759 289.5853668 157.58936957 288.82441865 151.22009277 288.75758362 C149.4998102 288.75781048 147.77952674 288.76022731 146.05924988 288.7646637 C141.40027137 288.77035923 136.74192109 288.74511542 132.08306217 288.71398878 C127.2064593 288.68640646 122.32985474 288.68644699 117.45318604 288.68327332 C109.26876989 288.67407751 101.08458796 288.64656716 92.90026855 288.60621643 C81.35099447 288.54932834 69.80183794 288.52705604 58.2524457 288.51093173 C50.25591092 288.49848415 42.25939404 288.47780552 34.26288128 288.45555162 C32.32287754 288.4501879 30.38287316 288.44505152 28.44286823 288.44013929 C22.91625225 288.42584883 17.38970357 288.4064365 11.8631382 288.37866211 C10.18733978 288.3709332 8.51153272 288.36487458 6.83572197 288.36058426 C4.55341455 288.35437757 2.27122336 288.34202986 -0.01104736 288.32798767 C-1.92902697 288.31962922 -1.92902697 288.31962922 -3.88575363 288.31110191 C-6.96838379 288.17408752 -6.96838379 288.17408752 -9.96838379 287.17408752 C-9.96838379 286.51408752 -9.96838379 285.85408752 -9.96838379 285.17408752 C-10.54588379 285.13283752 -11.12338379 285.09158752 -11.71838379 285.04908752 C-15.19960681 283.69527857 -16.16911281 281.3721203 -17.96838379 278.17408752 C-18.46958923 274.98731995 -18.46958923 274.98731995 -18.47009277 271.52955627 C-18.47947372 270.22800598 -18.48885468 268.92645569 -18.4985199 267.58546448 C-18.48804093 266.17749876 -18.47667182 264.76953943 -18.46447754 263.36158752 C-18.46463268 261.90479968 -18.46612414 260.44801143 -18.46888733 258.9912262 C-18.47026844 255.94489695 -18.45776233 252.89904016 -18.43493652 249.85279846 C-18.40655219 245.95895589 -18.40929279 242.06589768 -18.42202663 238.17199707 C-18.42900027 235.16584134 -18.42117545 232.1598651 -18.40876961 229.1537323 C-18.40427143 227.71849762 -18.40390396 226.28324355 -18.40783501 224.8480072 C-18.41076345 222.83817856 -18.39202227 220.82835412 -18.37243652 218.81861877 C-18.36703354 217.67755676 -18.36163055 216.53649475 -18.35606384 215.3608551 C-17.76312521 210.48684212 -16.07758765 207.22640913 -12.53088379 203.86158752 C-8.26866926 201.05476332 -4.64715218 201.04639569 0.40135193 201.02932739 C1.71223282 201.02242889 3.02311371 201.0155304 4.37371826 201.00842285 C5.82470689 201.00570837 7.27569567 201.0030712 8.72668457 201.00050354 C10.25609017 200.99419661 11.78549393 200.98743065 13.31489563 200.98023987 C16.60735123 200.96558067 19.89979979 200.95385166 23.19227409 200.94429207 C28.39856665 200.92883284 33.60479856 200.90488441 38.81105042 200.87939453 C53.61524627 200.80820768 68.41947652 200.74838527 83.22375488 200.69728088 C91.40078273 200.66897878 99.57774988 200.63360044 107.75471407 200.59062713 C112.92995887 200.56385685 118.10513503 200.54595057 123.28043544 200.53458989 C126.50054312 200.52546269 129.72056736 200.50810058 132.94062614 200.48841095 C134.43335661 200.48093921 135.92610847 200.47685461 137.41885757 200.47641563 C139.45756254 200.47533201 141.49624738 200.46091255 143.53489685 200.4458313 C145.24578696 200.43948339 145.24578696 200.43948339 146.9912405 200.43300724 C152.54667842 199.95990373 156.64799719 197.53175316 161.03161621 194.17408752 C165.98157014 187.8491464 167.33084221 181.99604697 167.3380127 174.09254456 C167.35049797 172.91081665 167.35049797 172.91081665 167.36323547 171.70521545 C167.38723029 169.1140593 167.39609414 166.52315532 167.40270996 163.93190002 C167.41168352 162.12117949 167.42080549 160.31045968 167.43006897 158.4997406 C167.44653238 154.70871686 167.45425438 150.91778116 167.45715332 147.12672424 C167.46253776 142.2823541 167.50023155 137.43881752 167.54589748 132.59468269 C167.5757191 128.85589107 167.58287797 125.11729909 167.58387947 121.3783989 C167.58807078 119.59309441 167.60046115 117.80778873 167.62139702 116.02260208 C168.27348696 104.16932108 168.27348696 104.16932108 163.6415205 93.78696346 C157.36205789 87.49590988 151.55004446 86.53612049 142.79995728 86.51074219 C141.30523332 86.52218113 139.81051286 86.53408308 138.3157959 86.54640198 C136.72505863 86.54121815 135.13432729 86.53381425 133.54360962 86.52436829 C130.13101226 86.50885029 126.71890633 86.50894255 123.3062973 86.52137184 C117.9108129 86.54095786 112.51576338 86.52569038 107.12030029 86.50592041 C98.59003598 86.47881061 90.05994981 86.47527291 81.52965093 86.48169345 C66.24171346 86.49265017 50.95382891 86.46805815 35.66594625 86.42794579 C30.30137237 86.41486603 24.93696139 86.41362044 19.57237959 86.42207873 C16.23981531 86.4256994 12.90729281 86.42140867 9.57473373 86.41523743 C8.02835055 86.41415065 6.48196053 86.41652111 4.93558884 86.42258263 C2.82658694 86.4304537 0.71794389 86.42615871 -1.39105225 86.41891479 C-2.57161823 86.41987813 -3.75218422 86.42084146 -4.96852493 86.42183399 C-9.54638717 86.04376647 -12.2045152 84.42657686 -15.17297363 80.98707581 C-19.44807782 74.99042606 -18.79523383 68.24278545 -18.69494629 61.16627502 C-18.69390712 59.71234642 -18.69495012 58.25841498 -18.69796753 56.80448914 C-18.6977889 53.76986782 -18.67709913 50.73631826 -18.64074707 47.70191956 C-18.59529024 43.82361606 -18.5943065 39.94686962 -18.60778236 36.06837273 C-18.61448172 33.07072747 -18.60116675 30.0734337 -18.5815239 27.07585526 C-18.57385953 25.64621446 -18.57150695 24.21653446 -18.57469559 22.78687668 C-18.57544185 20.78678786 -18.54713867 18.7867528 -18.5177002 16.78688049 C-18.50848541 15.65185089 -18.49927063 14.51682129 -18.48977661 13.34739685 C-17.71677299 8.64272988 -15.45455385 5.48011576 -11.90588379 2.36158752 C-7.95830932 -0.0578936 -4.53120337 0.03349764 0 0 Z " fill="#FEFEFE" transform="translate(313.9683837890625,395.82591247558594)"/>
<path d="M0 0 C0.99 0.66 1.98 1.32 3 2 C3.36076355 4.51834106 3.36076355 4.51834106 3.34057617 7.73486328 C3.34034958 8.93595734 3.34012299 10.13705139 3.33988953 11.37454224 C3.32440567 12.67664642 3.30892181 13.97875061 3.29296875 15.3203125 C3.28737416 16.66266405 3.28310341 18.00502173 3.28010559 19.34738159 C3.26864585 22.88210941 3.23916959 26.41646798 3.20599365 29.9510498 C3.17531671 33.55715947 3.16160538 37.16332874 3.14648438 40.76953125 C3.11430052 47.84650532 3.06309094 54.92322857 3 62 C0.525 62.495 0.525 62.495 -2 63 C-2 62.34 -2 61.68 -2 61 C-1.34 61 -0.68 61 0 61 C0 40.87 0 20.74 0 0 Z " fill="#080808" transform="translate(492,613)"/>
<path d="M0 0 C-0.99 0.33 -1.98 0.66 -3 1 C-3.66 1.66 -4.32 2.32 -5 3 C-6.36341559 4.05678397 -7.73963974 5.09715206 -9.125 6.125 C-9.84945313 6.66382813 -10.57390625 7.20265625 -11.3203125 7.7578125 C-11.87460937 8.16773438 -12.42890625 8.57765625 -13 9 C-11.81817091 4.40399799 -9.5133843 2.51425189 -5.8515625 -0.1796875 C-3.50952707 -1.21729813 -2.36546493 -0.84406458 0 0 Z " fill="#323232" transform="translate(508,599)"/>
</svg>
