<?xml version="1.0" encoding="UTF-8"?>
<svg version="1.1" xmlns="http://www.w3.org/2000/svg" width="720" height="1080">
<path d="M0 0 C237.6 0 475.2 0 720 0 C720 356.4 720 712.8 720 1080 C482.4 1080 244.8 1080 0 1080 C0 723.6 0 367.2 0 0 Z " fill="#C4D9FE" transform="translate(0,0)"/>
<path d="M0 0 C0.80238185 -0.00453111 1.60476369 -0.00906223 2.43146014 -0.01373065 C5.11743107 -0.02638068 7.80319938 -0.02475388 10.48919678 -0.02310181 C12.4161963 -0.02908675 14.34319341 -0.03589221 16.27018738 -0.04345703 C21.50381257 -0.06112938 26.73737237 -0.06581298 31.97102451 -0.0670886 C35.24209078 -0.06851025 38.51314043 -0.07278014 41.78420258 -0.07808304 C53.19971268 -0.09658856 64.61517607 -0.10475314 76.03070068 -0.10317993 C86.66493578 -0.10197892 97.29896777 -0.12307204 107.93315148 -0.15466726 C117.06793428 -0.1808386 126.20265078 -0.19154684 135.33747077 -0.19026911 C140.79107536 -0.18975966 146.24449953 -0.19543341 151.69806671 -0.21662521 C156.82976473 -0.23602151 161.96111052 -0.23612241 167.09282112 -0.22159195 C168.97251717 -0.21950438 170.85223535 -0.22420165 172.73189354 -0.23631287 C184.53926916 -0.30744179 193.25415557 -0.19295665 202.34536743 8.03111267 C203.88997106 9.56137091 205.42110276 11.10530797 206.94085693 12.6602478 C208.20844093 13.9267366 208.20844093 13.9267366 209.50163269 15.21881104 C211.79761739 17.51766521 214.08217875 19.8271634 216.3619895 22.14203763 C218.75780867 24.56931906 221.16799406 26.98225299 223.57662964 29.39680481 C228.1302842 33.96595087 232.67105609 38.54767718 237.20723927 43.13416189 C242.36343626 48.34629164 247.53386943 53.54419964 252.70555472 58.74095452 C262.91093319 68.99637698 273.10009114 79.26774789 283.27769279 89.55074406 C284.34607958 90.62789431 285.4440011 91.67730728 286.58059883 92.68221951 C289.63764018 96.14414952 290.23052106 99.8733572 290.25456238 104.36380005 C290.26453751 105.36736542 290.27451263 106.37093079 290.28479004 107.40490723 C290.28545471 108.49488007 290.28611938 109.58485291 290.2868042 110.70785522 C290.29512772 111.86455719 290.30345123 113.02125916 290.31202698 114.2130127 C290.33612992 118.03847619 290.34489996 121.86376915 290.35150146 125.68930054 C290.35820131 127.67813061 290.36490345 129.66696069 290.37193638 131.65578961 C290.39338996 137.91045649 290.40273929 144.16506917 290.40594482 150.41976929 C290.40957624 156.85519634 290.43944685 163.29014536 290.48134941 169.72542644 C290.51613646 175.26364278 290.53149473 180.80170137 290.53219086 186.34002614 C290.53298101 189.64196901 290.54399201 192.94331686 290.57018852 196.24517059 C290.59712107 199.93367294 290.59226997 203.6208664 290.57977295 207.30941772 C290.60202438 208.9322316 290.60202438 208.9322316 290.62472534 210.58782959 C290.55813969 217.50882247 289.3486762 222.75552781 284.98040771 228.26742554 C280.06666592 232.23573424 274.96891319 233.38558191 268.80389404 233.40927124 C267.77214554 233.41630569 266.74039703 233.42334015 265.67738342 233.43058777 C264.56695175 233.43475204 263.45652008 233.43891632 262.31243896 233.44320679 C259.95110198 233.4664104 257.58977383 233.49052795 255.22845459 233.51547241 C251.51346972 233.550531 247.7988091 233.57990417 244.0836792 233.59335327 C240.49286776 233.60888963 236.90299922 233.64914151 233.31243896 233.69320679 C231.66197319 233.69034416 231.66197319 233.69034416 229.97816467 233.68742371 C221.75459475 233.81688735 214.93840431 235.40711925 208.60540771 240.89242554 C202.16482015 248.0774346 202.54887511 258.28009497 202.56971741 267.36426544 C202.57425716 269.51772358 202.56002896 271.67038636 202.5413208 273.82376099 C202.49865226 279.16354525 202.48728927 284.50330632 202.47509766 289.8432312 C202.46354144 294.37684089 202.43992819 298.91008011 202.40040588 303.44353485 C202.38690834 305.55631953 202.39099034 307.66859229 202.39581299 309.78140259 C202.3857019 311.07004211 202.37559082 312.35868164 202.36517334 313.68637085 C202.3631189 314.81536804 202.36106445 315.94436523 202.35894775 317.10757446 C201.69790177 322.62563504 198.9358351 327.41608835 194.98040771 331.26742554 C186.13342936 335.39395579 176.73341657 334.68976382 167.1852417 334.65560913 C165.27573344 334.65967834 163.36622754 334.66502219 161.45672607 334.67153931 C156.28947219 334.68517613 151.12239868 334.6799295 145.95514178 334.67040205 C140.53900349 334.66278772 135.12288026 334.66985588 129.70674133 334.67456055 C120.61377194 334.68001246 111.52087575 334.67284078 102.42791748 334.65853882 C91.92425278 334.64220851 81.42076276 334.64750589 70.91710228 334.66401803 C61.88755598 334.67764309 52.85806218 334.67954771 43.82850891 334.67170203 C38.44043208 334.66703177 33.05243729 334.666383 27.66436577 334.67631149 C22.59913094 334.68499386 17.53412084 334.67893596 12.46891022 334.66162872 C10.61298813 334.65767089 8.75704705 334.65878585 6.90113258 334.66541672 C4.36211392 334.6736501 1.82380934 334.66328943 -0.71516418 334.64837646 C-1.44445729 334.65506863 -2.1737504 334.6617608 -2.9251433 334.66865575 C-8.19160251 334.60891332 -12.16987526 333.32406488 -17.01959229 331.26742554 C-17.01959229 330.60742554 -17.01959229 329.94742554 -17.01959229 329.26742554 C-17.95622208 329.12946815 -17.95622208 329.12946815 -18.91177368 328.98872375 C-19.60735382 328.75069534 -20.30293396 328.51266693 -21.01959229 328.26742554 C-24.94544698 320.20958933 -24.4577351 311.68473614 -24.41802979 302.91976929 C-24.42005467 301.33753831 -24.42296955 299.75530825 -24.42672729 298.17308044 C-24.43112989 294.87069743 -24.42478584 291.56855921 -24.41070557 288.26620483 C-24.39360065 284.05096202 -24.403476 279.83629185 -24.42142296 275.62106991 C-24.43230494 272.35837043 -24.42879456 269.09580496 -24.42103958 265.83310127 C-24.41905048 264.27949517 -24.42145108 262.72587656 -24.42847824 261.17228508 C-24.48223223 245.95370517 -24.48223223 245.95370517 -21.01959229 239.26742554 C-17.07034108 235.31817433 -13.1846747 233.42302168 -7.61112881 233.02247238 C-5.63928663 233.02586561 -5.63928663 233.02586561 -3.62760925 233.02932739 C-2.89268094 233.02776839 -2.15775263 233.02620938 -1.40055376 233.02460313 C1.05734118 233.02165227 3.5149702 233.03281343 5.97283936 233.04379272 C7.73733518 233.04431709 9.5018315 233.043881 11.2663269 233.04255676 C15.06515497 233.04122347 18.86391839 233.04563219 22.66273689 233.05416107 C28.67755774 233.06655346 34.69225878 233.05958747 40.70707703 233.04873657 C57.81083354 233.02028685 74.91448781 233.00779068 92.01824951 233.03744507 C101.46550671 233.05366215 110.91250248 233.04843708 120.35973257 233.01964879 C125.35468144 233.00539025 130.34908627 233.00225798 135.34401131 233.02587128 C140.04827208 233.0481063 144.75169031 233.0423725 149.45592117 233.01588631 C151.17471173 233.01114162 152.89356705 233.01648708 154.61228371 233.03311729 C164.93897172 233.1263811 173.21747291 232.4916726 181.98040771 226.26742554 C188.28991625 219.94960434 189.28050409 213.22381437 189.2868042 204.73886108 C189.29928947 203.30863617 189.29928947 203.30863617 189.31202698 201.84951782 C189.3360996 198.70101829 189.34489591 195.55272606 189.35150146 192.40414429 C189.36047001 190.21085041 189.3695919 188.01755716 189.37886047 185.82426453 C189.39534569 181.22693394 189.40304972 176.62967614 189.40594482 172.03231812 C189.41132744 166.15105407 189.44900518 160.27047723 189.49468899 154.38940716 C189.52448061 149.85883608 189.53166885 145.32843005 189.53267097 140.79776955 C189.53686921 138.63009304 189.54928747 136.46241585 189.57018852 134.29483604 C189.59714506 131.2574394 189.59226417 128.2216301 189.57977295 125.18417358 C189.59460724 124.2950679 189.60944153 123.40596222 189.62472534 122.48991394 C189.5526326 116.31135404 188.03143582 112.00377483 183.98040771 107.26742554 C182.99040771 106.60742554 182.00040771 105.94742554 180.98040771 105.26742554 C180.98040771 104.60742554 180.98040771 103.94742554 180.98040771 103.26742554 C179.55728271 103.05086304 179.55728271 103.05086304 178.10540771 102.82992554 C174.98040771 102.26742554 174.98040771 102.26742554 172.98040771 101.26742554 C170.57368736 101.16429893 168.19542598 101.12135012 165.78819275 101.12266541 C165.03863809 101.11913856 164.28908344 101.11561171 163.51681501 101.11197799 C160.99189641 101.10125848 158.46701549 101.09760438 155.94207764 101.09384155 C154.13710876 101.08753875 152.33214144 101.08077326 150.5271759 101.07357788 C146.63336193 101.05888857 142.73955405 101.04717168 138.84572411 101.03763008 C132.69025717 101.02220429 126.53484206 100.99825518 120.37940979 100.97273254 C102.87331412 100.90145933 85.36718866 100.84173911 67.86102295 100.7906189 C58.19783793 100.76232566 48.53470436 100.72694918 38.87157327 100.68396515 C32.75132382 100.65717118 26.6311326 100.63927909 20.51083601 100.6279279 C16.70292827 100.6188071 12.89509128 100.60144752 9.08722496 100.58174896 C7.32035941 100.57427036 5.55347572 100.57019221 3.78659439 100.56975365 C1.37544687 100.56867184 -1.0353404 100.55543056 -3.44642639 100.53916931 C-4.14643243 100.54178617 -4.84643847 100.54440302 -5.56765682 100.54709917 C-11.01239554 100.48970067 -14.46046407 99.56669905 -18.64459229 96.07992554 C-23.18087897 90.70800709 -24.39343211 85.92090835 -24.42364502 78.99032593 C-24.43050827 78.299897 -24.43737152 77.60946808 -24.44444275 76.89811707 C-24.46260496 74.63689056 -24.45888874 72.37636492 -24.45318604 70.11508179 C-24.45775296 68.52999143 -24.46306005 66.94490305 -24.46907043 65.3598175 C-24.47798076 62.04549084 -24.4756023 58.7314054 -24.46563721 55.41708374 C-24.45415039 51.18597238 -24.47436452 46.95569599 -24.50355434 42.72469425 C-24.52196843 39.4534025 -24.52161358 36.18230893 -24.51591682 32.91097832 C-24.51576424 31.35177883 -24.52175599 29.79256537 -24.5342083 28.2334156 C-24.63949859 12.89023812 -24.63949859 12.89023812 -20.01959229 6.26742554 C-17.73860762 4.47682071 -15.7104318 3.49482602 -13.01959229 2.26742554 C-12.28651981 1.90942556 -11.55344734 1.55142559 -10.79816055 1.18257713 C-7.18232669 -0.00833697 -3.76379632 -0.01563024 0 0 Z " fill="#0153E4" transform="translate(227.01959228515625,372.7325744628906)"/>
<path d="M0 0 C0.66 0 1.32 0 2 0 C2 0.66 2 1.32 2 2 C7.58291321 3.57751411 12.51290604 4.29070228 18.29769897 4.26069641 C19.49180765 4.26643473 19.49180765 4.26643473 20.71003973 4.27228898 C23.35672931 4.28254327 26.00319886 4.27864133 28.64990234 4.2746582 C30.55601704 4.27900888 32.46212999 4.28419321 34.36824036 4.29014587 C39.53151633 4.30350899 44.69471897 4.30411752 49.85800886 4.30158257 C54.17448882 4.30051102 58.49095406 4.30540096 62.80743086 4.310188 C72.99402766 4.32127394 83.18058759 4.32172575 93.3671875 4.31567383 C103.86226366 4.30963434 114.35720575 4.32194656 124.85225904 4.3432439 C133.87586519 4.36087932 142.89942874 4.36685818 151.92305148 4.36360615 C157.30674361 4.36179622 162.6903401 4.36440053 168.07401657 4.37832069 C173.13841116 4.39092595 178.20259725 4.38892939 183.26698875 4.37590981 C185.12046187 4.37355034 186.97394979 4.37625603 188.82740593 4.38453293 C202.18997901 4.51754335 202.18997901 4.51754335 215 1 C215.08226668 4.04386724 214.97608217 6.07175348 214 9 C213.01 9 212.02 9 211 9 C211 8.34 211 7.68 211 7 C210.34 7 209.68 7 209 7 C209 7.66 209 8.32 209 9 C207.33388095 9.042721 205.66617115 9.04063832 204 9 C203.67 8.67 203.34 8.34 203 8 C200.59074771 7.90454287 198.21029622 7.87448753 195.8006897 7.88647461 C195.03832768 7.88632575 194.27596566 7.88617689 193.49050176 7.88602352 C190.91632924 7.88672225 188.34222664 7.8945836 185.76806641 7.90234375 C183.93044576 7.90426139 182.0928246 7.90572591 180.25520325 7.9067688 C176.28823514 7.90993825 172.32128813 7.9162195 168.35432816 7.92483521 C162.08610438 7.93831076 155.81788773 7.94424191 149.5496521 7.94897461 C135.1089807 7.96104284 120.66832764 7.98308638 106.22766876 8.00520325 C93.00203374 8.02536097 79.77640489 8.04343841 66.55075777 8.05341816 C60.31536979 8.05841229 54.08001404 8.06828982 47.84463906 8.08184814 C43.96912647 8.0892908 40.09361837 8.09262006 36.21809959 8.0948143 C34.41651709 8.09669156 32.61493547 8.10030287 30.81336021 8.10574722 C28.35997836 8.11292954 25.90666812 8.11400249 23.45327759 8.11352539 C22.37599756 8.11891783 22.37599756 8.11891783 21.27695429 8.12441921 C18.23294714 8.11804918 15.91355942 7.97118647 13 7 C11.8553125 7.556875 11.8553125 7.556875 10.6875 8.125 C8 9 8 9 4.6875 7.625 C3.800625 7.08875 2.91375 6.5525 2 6 C2 5.34 2 4.68 2 4 C1.34 4 0.68 4 0 4 C0 2.68 0 1.36 0 0 Z " fill="#AACEFE" transform="translate(208,702)"/>
<path d="M0 0 C0.99 0.33 1.98 0.66 3 1 C5.49684513 1.10943419 7.96687055 1.16354442 10.46432495 1.17167664 C11.61443989 1.1812003 11.61443989 1.1812003 12.78778946 1.19091636 C15.36486338 1.21100581 17.94192439 1.22402847 20.51904297 1.23706055 C22.36356887 1.24991103 24.20809199 1.26316537 26.0526123 1.27679443 C31.06911658 1.31243601 36.08563872 1.34165269 41.10219336 1.36918616 C44.23485527 1.38667781 47.36750564 1.40555553 50.5001564 1.42493629 C61.42472204 1.49250498 72.34930333 1.55491349 83.27392578 1.61254883 C93.46398036 1.66644306 103.6539217 1.73154392 113.84387481 1.80188721 C122.58700493 1.86175144 131.33015892 1.91382163 140.07337296 1.95981437 C145.29769736 1.98742851 150.52195632 2.01821541 155.74621201 2.05682945 C160.65941401 2.09287383 165.57257332 2.11923034 170.48587036 2.1381073 C172.28985725 2.14668832 174.09383145 2.15873682 175.89776993 2.17449379 C178.35914426 2.19545401 180.82025715 2.20393763 183.28170776 2.20927429 C183.99659548 2.2183088 184.71148319 2.22734331 185.44803417 2.2366516 C189.46646569 2.22989101 192.33347402 1.56596203 196 0 C199.8125 0.375 199.8125 0.375 203 1 C203 1.99 203 2.98 203 4 C202.34 4 201.68 4 201 4 C201 4.66 201 5.32 201 6 C133.02 5.67 65.04 5.34 -5 5 C-5 4.01 -5 3.02 -5 2 C-2.525 2.495 -2.525 2.495 0 3 C0 2.01 0 1.02 0 0 Z " fill="#C7DFFA" transform="translate(221,368)"/>
<path d="M0 0 C23.12196197 -0.0233509 46.243922 -0.04098997 69.36589336 -0.05181217 C80.10159893 -0.05697046 90.83729718 -0.06400429 101.57299805 -0.07543945 C110.92922925 -0.08540052 120.28545515 -0.09185683 129.64169151 -0.09408849 C134.59662616 -0.09539317 139.55154565 -0.09846376 144.50647545 -0.10573006 C149.16932417 -0.11251268 153.83215146 -0.11461237 158.49500465 -0.11310768 C160.20705405 -0.113383 161.91910416 -0.11537483 163.63114929 -0.11920547 C165.9678456 -0.12417771 168.30446089 -0.12298521 170.64115906 -0.12025452 C171.9491833 -0.12117631 173.25720755 -0.1220981 174.60486889 -0.12304783 C177.54383907 -0.01653238 180.14954896 0.3118863 183 1 C179.42034568 3.38643621 176.89747631 3.27509929 172.76777649 3.24050903 C172.02609024 3.24221788 171.28440399 3.24392673 170.52024239 3.24568737 C168.02812731 3.24898886 165.53627984 3.23796783 163.04418945 3.22705078 C161.26051846 3.22648681 159.476847 3.22680295 157.69317627 3.22793579 C152.84429454 3.22851085 147.99551126 3.21673174 143.14665246 3.20278788 C138.08175671 3.19030605 133.01685883 3.18911203 127.95195007 3.18673706 C118.35784261 3.18051479 108.7637806 3.16409387 99.16969317 3.14403808 C88.24843509 3.12170231 77.32717487 3.1106915 66.40589964 3.10064721 C43.93724121 3.07972829 21.46862315 3.0445378 -1 3 C-0.67 2.01 -0.34 1.02 0 0 Z " fill="#A3C8FD" transform="translate(217,603)"/>
<path d="M0 0 C2.15703307 3.2355496 2.25420689 4.12210799 2.27415466 7.85586548 C2.28412979 8.85668152 2.29410492 9.85749756 2.30438232 10.88864136 C2.305047 11.98580475 2.30571167 13.08296814 2.30639648 14.21337891 C2.31472 15.36978882 2.32304352 16.52619873 2.33161926 17.71765137 C2.35578192 21.55398902 2.36450046 25.39015673 2.37109375 29.2265625 C2.37779221 31.21777108 2.38449287 33.20897967 2.39152867 35.20018709 C2.41300956 41.46728664 2.4223354 47.73433203 2.42553711 54.00146484 C2.42916527 60.45161906 2.45900553 66.90129535 2.50094169 73.3513037 C2.5357315 78.8979722 2.5510871 84.44448315 2.55178314 89.99125993 C2.55257354 93.29993904 2.56359202 96.6080243 2.58978081 99.91661453 C2.61671584 103.61491315 2.61186095 107.31190641 2.59936523 111.01025391 C2.61419952 112.09527191 2.62903381 113.18028992 2.64431763 114.29818726 C2.57784178 121.22744581 1.37577589 126.48206636 -3 132 C-8.14162108 136.1519751 -13.35054246 137.12749882 -19.77832031 137.11352539 C-20.9392218 137.11344986 -22.10012329 137.11337433 -23.29620361 137.11329651 C-24.54423767 137.10813522 -25.79227173 137.10297394 -27.078125 137.09765625 C-29.00069122 137.09553383 -29.00069122 137.09553383 -30.96209717 137.09336853 C-34.3618364 137.08955901 -37.7615326 137.07974214 -41.16125488 137.06866455 C-44.633539 137.05841674 -48.1058301 137.0538637 -51.578125 137.04882812 C-58.38543429 137.03811841 -65.19271508 137.02106084 -72 137 C-70.515 135.02 -70.515 135.02 -69 133 C-68.01 133.33 -67.02 133.66 -66 134 C-64.42236641 134.10171935 -62.84086762 134.1483646 -61.26000977 134.16113281 C-59.81689171 134.17554413 -59.81689171 134.17554413 -58.34461975 134.19024658 C-56.78377907 134.1966214 -56.78377907 134.1966214 -55.19140625 134.203125 C-53.57576027 134.21167511 -53.57576027 134.21167511 -51.92747498 134.22039795 C-49.64184552 134.22985332 -47.35620241 134.23638406 -45.07055664 134.24023438 C-41.6073343 134.24987519 -38.14472201 134.28086692 -34.68164062 134.3125 C-32.45573267 134.31903685 -30.22982049 134.32428464 -28.00390625 134.328125 C-26.47039268 134.3466452 -26.47039268 134.3466452 -24.90589905 134.36553955 C-17.57065275 134.34331345 -11.03161949 133.05783541 -4 131 C-3.87625 130.401875 -3.7525 129.80375 -3.625 129.1875 C-3 127 -3 127 -1 124 C0.47655879 117.32183466 0.13695781 110.21929734 0.11352539 103.42163086 C0.11367142 102.29865601 0.11381744 101.17568115 0.1139679 100.01867676 C0.11327532 96.3340456 0.10551375 92.649466 0.09765625 88.96484375 C0.09578974 86.39937874 0.09436694 83.83391337 0.09336853 81.26844788 C0.08995008 75.22323178 0.08208131 69.17803756 0.07201904 63.1328302 C0.0608057 56.24520975 0.05533434 49.35758837 0.05032361 42.46996105 C0.03989714 28.31329728 0.02233039 14.15664964 0 0 Z " fill="#1A59CC" transform="translate(515,469)"/>
<path d="M0 0 C0 0.99 0 1.98 0 3 C-0.66 3 -1.32 3 -2 3 C-2 3.66 -2 4.32 -2 5 C-7.75 5.125 -7.75 5.125 -10 4 C-12.51859334 3.89236333 -15.01027458 3.84510598 -17.52957153 3.84178162 C-18.31532244 3.83684364 -19.10107334 3.83190566 -19.91063488 3.82681805 C-22.5577713 3.81139392 -25.20488339 3.80306917 -27.85205078 3.79467773 C-29.74394955 3.78510307 -31.63584615 3.77509324 -33.52774048 3.76467896 C-38.67620442 3.73757921 -43.82467757 3.71659715 -48.97317362 3.69667697 C-54.34906613 3.67484862 -59.72493007 3.64744455 -65.10079956 3.62062073 C-75.28634954 3.57065114 -85.47191534 3.52572817 -95.65749633 3.48259836 C-107.2510532 3.4332624 -118.84458142 3.3783308 -130.43811059 3.32291877 C-154.29204701 3.20903325 -178.1460109 3.10220856 -202 3 C-202 2.67 -202 2.34 -202 2 C-201.02539983 1.99668985 -200.05079966 1.99337971 -199.04666615 1.98996925 C-175.34448872 1.90901456 -151.64237627 1.81671114 -127.9402895 1.71247292 C-116.47819163 1.66232771 -105.01610099 1.61588498 -93.55395508 1.578125 C-83.56483231 1.54520827 -73.57576526 1.50537877 -63.58670396 1.45720994 C-58.29643025 1.43194184 -53.00619352 1.41016142 -47.71587563 1.39665604 C-42.73778911 1.38383859 -37.7598294 1.36178746 -32.78181267 1.33261681 C-30.95367426 1.32353858 -29.12551543 1.31785023 -27.29735565 1.31578636 C-24.80289516 1.31246558 -22.30879458 1.29699312 -19.81440735 1.2784729 C-18.7273334 1.281375 -18.7273334 1.281375 -17.61829835 1.28433573 C-11.01896131 1.21099951 -6.67922567 -1.30965209 0 0 Z " fill="#D7EBFE" transform="translate(424,369)"/>
<path d="M0 0 C1.24726758 0.24343785 1.24726758 0.24343785 2.51973248 0.49179363 C6.26556697 1.03877944 9.90982042 1.14079142 13.6842804 1.13130188 C14.43851404 1.13341759 15.19274768 1.13553331 15.96983689 1.13771313 C18.48682335 1.14368499 21.00375928 1.142715 23.52075195 1.1418457 C25.32967209 1.14487906 27.13859145 1.148401 28.94750977 1.15237427 C32.83852027 1.16024989 36.72952166 1.16540313 40.62053871 1.16866493 C46.77742427 1.17458654 52.93425237 1.1911376 59.09111023 1.21000671 C61.20093628 1.21634371 63.31076237 1.22266933 65.42058849 1.22898388 C66.47703733 1.23214969 67.53348616 1.2353155 68.6219486 1.23857725 C82.95132476 1.28061818 97.28067367 1.3136308 111.61010742 1.32592773 C121.28218601 1.33431307 130.95412174 1.35681941 140.62612885 1.3952834 C145.74100199 1.41502415 150.85566167 1.42745508 155.97057533 1.42244911 C160.78305365 1.41779623 165.59512733 1.43164316 170.40752411 1.45946121 C172.16948557 1.46636154 173.93148897 1.46651205 175.69344902 1.45926094 C194.23783646 1.39067535 194.23783646 1.39067535 200 6 C200.33 6.99 200.66 7.98 201 9 C201.66 9 202.32 9 203 9 C202.67 9.99 202.34 10.98 202 12 C200.2925002 10.71937515 198.62626404 9.38232443 197 8 C197 7.34 197 6.68 197 6 C196.05125 5.855625 195.1025 5.71125 194.125 5.5625 C191 5 191 5 189 4 C186.59327964 3.89687339 184.21501826 3.85392458 181.80778503 3.85523987 C180.68345305 3.8499496 180.68345305 3.8499496 179.53640729 3.84455246 C177.01148869 3.83383295 174.48660777 3.83017885 171.96166992 3.82641602 C170.15670104 3.82011321 168.35173373 3.81334772 166.54676819 3.80615234 C162.65295422 3.79146303 158.75914633 3.77974614 154.86531639 3.77020454 C148.70984946 3.75477876 142.55443435 3.73082964 136.39900208 3.70530701 C118.89290641 3.63403379 101.38678094 3.57431357 83.88061523 3.52319336 C74.21743021 3.49490012 64.55429664 3.45952364 54.89116555 3.41653961 C48.77091611 3.38974565 42.65072489 3.37185355 36.53042829 3.36050236 C32.72252056 3.35138156 28.91468357 3.33402199 25.10681725 3.31432343 C23.33995169 3.30684482 21.573068 3.30276668 19.80618668 3.30232811 C17.39503916 3.3012463 14.98425188 3.28800503 12.57316589 3.27174377 C11.87315985 3.27436063 11.17315381 3.27697748 10.45193547 3.27967364 C6.53418952 3.23837271 3.53249806 2.71339682 0 1 C0 0.67 0 0.34 0 0 Z " fill="#1252C9" transform="translate(211,470)"/>
<path d="M0 0 C0 0.66 0 1.32 0 2 C-3.70922314 4.36046675 -6.9451019 4.2553653 -11.2741394 4.26501465 C-12.375475 4.27158655 -12.375475 4.27158655 -13.4990598 4.27829123 C-15.96020984 4.2906164 -18.42114687 4.28880277 -20.88232422 4.28710938 C-22.6465588 4.2931333 -24.4107905 4.30005748 -26.17501831 4.30781555 C-29.97495238 4.32270974 -33.77483385 4.33145508 -37.57479477 4.33552551 C-43.58369964 4.34223582 -49.59249195 4.36398678 -55.60134888 4.38806152 C-68.35920622 4.43704982 -81.1170874 4.46935307 -93.875 4.5 C-107.64077675 4.53308103 -121.40650951 4.56901234 -135.17221844 4.62413073 C-141.14501278 4.64747589 -147.11772903 4.66121958 -153.09056449 4.66762543 C-156.80783075 4.67356576 -160.52503375 4.68766387 -164.24226761 4.70396996 C-165.96517871 4.70984376 -167.68810529 4.71231862 -169.411026 4.71113014 C-171.76478278 4.70996945 -174.11818479 4.7209997 -176.47189331 4.73498535 C-178.44687711 4.73938503 -178.44687711 4.73938503 -180.46175957 4.7438736 C-185.60865765 5.11644763 -189.83088758 6.77459703 -194.375 9.125 C-195.06335938 9.47820313 -195.75171875 9.83140625 -196.4609375 10.1953125 C-196.96882812 10.46085938 -197.47671875 10.72640625 -198 11 C-198 10.34 -198 9.68 -198 9 C-192.52026945 3.98996064 -187.8529537 2.69993258 -180.56091309 2.73498535 C-179.45111218 2.72841345 -179.45111218 2.72841345 -178.31889105 2.72170877 C-175.84469364 2.70940675 -173.37070879 2.71119564 -170.89648438 2.71289062 C-169.12062771 2.70686532 -167.3447739 2.6999408 -165.56892395 2.69218445 C-161.74717878 2.67730204 -157.92548581 2.66854791 -154.10371399 2.66447449 C-148.06139911 2.65776013 -142.01919596 2.63600527 -135.97692871 2.61193848 C-122.06031612 2.55880873 -108.1436691 2.52543074 -94.22699738 2.49217987 C-81.47198011 2.46150168 -68.71701073 2.42667319 -55.96205568 2.37586927 C-49.95469488 2.35251198 -43.94741182 2.33877755 -37.94001007 2.33237457 C-34.20421916 2.32643969 -30.46849138 2.31234665 -26.73273277 2.29603004 C-24.99972541 2.29015012 -23.26670262 2.28768264 -21.53368568 2.28886986 C-19.16868495 2.2900282 -16.80403939 2.27901918 -14.43908691 2.26501465 C-13.40965666 2.26996311 -13.40965666 2.26996311 -12.35942984 2.27501154 C-7.90893667 2.23149513 -4.18125588 0 0 0 Z " fill="#0D52CE" transform="translate(404,603)"/>
<path d="M0 0 C0.99 0.33 1.98 0.66 3 1 C3.90456021 3.71368063 4.12385605 5.25927707 4.12025452 8.04325867 C4.12162918 8.8635556 4.12300385 9.68385254 4.12442017 10.52900696 C4.12082489 11.42524277 4.11722961 12.32147858 4.11352539 13.24487305 C4.11367142 14.19140747 4.11381744 15.13794189 4.1139679 16.11315918 C4.11327047 19.24603557 4.10548599 22.37885273 4.09765625 25.51171875 C4.09579147 27.6821947 4.09436785 29.85267106 4.09336853 32.02314758 C4.08954811 37.73927978 4.07972184 43.45538662 4.06866455 49.17150879 C4.05844024 55.00300758 4.05386872 60.83451046 4.04882812 66.66601562 C4.03809918 78.11068823 4.02102842 89.55534201 4 101 C3.34 101 2.68 101 2 101 C1.98969254 99.79365906 1.97938507 98.58731812 1.96876526 97.34442139 C1.87107743 85.98475244 1.76834765 74.62513884 1.66066074 63.26556015 C1.60545838 57.42526893 1.55204258 51.58497268 1.50268555 45.74462891 C1.4550025 40.11009592 1.40265812 34.47562388 1.34705925 28.84116364 C1.32665359 26.68976608 1.30793755 24.53835182 1.29092598 22.38692474 C1.26684251 19.37735449 1.23679312 16.36789923 1.20532227 13.35839844 C1.1995668 12.4657579 1.19381134 11.57311737 1.18788147 10.65342712 C1.17809265 9.83175552 1.16830383 9.01008392 1.15821838 8.16351318 C1.15176583 7.451889 1.14531328 6.74026482 1.1386652 6.00707626 C0.99346307 3.90538277 0.5702892 2.02439299 0 0 Z " fill="#1B5ACC" transform="translate(415,484)"/>
<path d="M0 0 C0.99 0.66 1.98 1.32 3 2 C2.38125 2.165 1.7625 2.33 1.125 2.5 C-1.56797493 4.40092348 -1.9043031 6.12687878 -2.61392212 9.26507568 C-3.50315081 15.56425338 -3.2620467 21.97075251 -3.23046875 28.3203125 C-3.22927465 29.90876223 -3.22882427 31.49721268 -3.2290802 33.08566284 C-3.22752229 36.40236887 -3.21928486 39.71896591 -3.20581055 43.03564453 C-3.18879404 47.27672809 -3.18499747 51.51769252 -3.18575573 55.75880623 C-3.18548326 59.03426236 -3.17999015 62.3096927 -3.17275429 65.58514023 C-3.16958384 67.14876994 -3.16760403 68.71240256 -3.16686058 70.27603531 C-3.16468126 72.46288233 -3.15590377 74.64960559 -3.14526367 76.83642578 C-3.14145187 78.07804474 -3.13764008 79.3196637 -3.13371277 80.59890747 C-3.00710318 83.81932493 -2.60808819 86.83857649 -2 90 C-3.32 90 -4.64 90 -6 90 C-7.22906443 81.51999212 -7.06869496 73.09086747 -6.94921875 64.546875 C-6.92995189 62.95746101 -6.91089729 61.36804444 -6.89204407 59.77862549 C-6.85127116 56.46368105 -6.806075 53.14883142 -6.75805664 49.83398438 C-6.69722976 45.59181948 -6.65041501 41.34962657 -6.60722637 37.10725021 C-6.57184774 33.83174562 -6.52761964 30.55640433 -6.48087502 27.28104401 C-6.45988301 25.71662441 -6.44196499 24.15216034 -6.4272213 22.58766937 C-6.40559727 20.40292997 -6.37168526 18.2187061 -6.3347168 16.03417969 C-6.31837692 14.79335632 -6.30203705 13.55253296 -6.28520203 12.27410889 C-6.00666442 9.0765073 -5.49126471 6.83145674 -4 4 C-1.875 3.1875 -1.875 3.1875 0 3 C0 2.01 0 1.02 0 0 Z " fill="#A9D0FE" transform="translate(207,608)"/>
<path d="M0 0 C1.25140936 3.85491262 1.13340609 7.70076289 1.11352539 11.70605469 C1.11367142 12.47717087 1.11381744 13.24828705 1.1139679 14.04277039 C1.11327249 16.5858341 1.10549749 19.12882412 1.09765625 21.671875 C1.09579075 23.43735718 1.09436747 25.20283987 1.09336853 26.96832275 C1.08955375 31.61091546 1.07973232 36.2534768 1.06866455 40.89605713 C1.0584281 45.63512752 1.05386612 50.37420299 1.04882812 55.11328125 C1.03810913 64.40886794 1.02104517 73.70443136 1 83 C1.95712891 83.43119141 1.95712891 83.43119141 2.93359375 83.87109375 C5.44966495 85.24565817 5.7811706 86.48108591 7 89 C7.99 89.33 8.98 89.66 10 90 C8.515 90.495 8.515 90.495 7 91 C6.34 90.67 5.68 90.34 5 90 C5 89.34 5 88.68 5 88 C4.37562546 87.90793777 3.75125092 87.81587555 3.10795593 87.72102356 C2.06451775 87.3641169 2.06451775 87.3641169 1 87 C-2.9454768 78.92222878 -2.42035206 70.36945181 -2.36328125 61.58203125 C-2.36276165 59.99501038 -2.3632832 58.40798886 -2.36479187 56.82096863 C-2.36470259 53.51018549 -2.35436119 50.19964812 -2.33618164 46.88891602 C-2.31344015 42.65563381 -2.31296525 38.42270817 -2.31969929 34.1893816 C-2.32304691 30.91819617 -2.31639517 27.64709136 -2.30657005 24.37592125 C-2.30273564 22.81508494 -2.3015625 21.25423964 -2.3031559 19.69339943 C-2.3035286 17.51132846 -2.29085168 15.32970803 -2.2746582 13.14770508 C-2.26774712 11.28980095 -2.26774712 11.28980095 -2.26069641 9.3943634 C-1.99666373 5.95656048 -1.23433617 3.20663716 0 0 Z " fill="#0F51C8" transform="translate(205,614)"/>
<path d="M0 0 C1.1918902 3.73278972 1.10003055 7.25414959 1.06591797 11.15185547 C1.06124512 11.86456604 1.05657227 12.57727661 1.05175781 13.31158447 C1.04127505 14.85574758 1.02861892 16.39989713 1.01403427 17.94402695 C0.991975 20.39075707 0.97791939 22.8374093 0.96633911 25.28421021 C0.93278081 32.23987467 0.89116478 39.1954102 0.82861328 46.15087891 C0.79089277 50.40892332 0.76792039 54.66683543 0.75430679 58.92502213 C0.74627004 60.54451309 0.73268591 62.16398665 0.71337509 63.78338242 C0.68679323 66.05220474 0.67899385 68.32039633 0.67529297 70.58935547 C0.66561493 71.87856903 0.65593689 73.16778259 0.64596558 74.49606323 C1.1315345 79.30181854 2.49422105 82.70933233 6.1875 85.875 C7.0846875 86.431875 7.0846875 86.431875 8 87 C6.515 87.495 6.515 87.495 5 88 C0.33272466 83.97648678 -1.73791546 79.48029759 -2.3742218 73.45846558 C-2.37359238 72.21001862 -2.37296295 70.96157166 -2.37231445 69.67529297 C-2.37596512 68.98004517 -2.37961578 68.28479736 -2.38337708 67.56848145 C-2.39141871 65.29279402 -2.37792948 63.01783298 -2.36328125 60.7421875 C-2.36276199 59.14991252 -2.36328224 57.5576369 -2.36479187 55.96536255 C-2.36470244 52.63843132 -2.354331 49.3117439 -2.33618164 45.98486328 C-2.31345846 41.72676351 -2.31296021 37.46901833 -2.31969929 33.21087456 C-2.3230444 29.92685815 -2.31639958 26.64292219 -2.30657005 23.35892105 C-2.3027299 21.78888495 -2.30156491 20.21883989 -2.3031559 18.6487999 C-2.30352786 16.45433305 -2.29087148 14.26031691 -2.2746582 12.06591797 C-2.27005081 10.81906219 -2.26544342 9.57220642 -2.26069641 8.28756714 C-2.00789072 5.09950759 -1.3692678 2.86770098 0 0 Z " fill="#1151C7" transform="translate(205,382)"/>
<path d="M0 0 C0.33 0 0.66 0 1 0 C1.82126228 3.61910096 2.1514243 7.01286327 2.22119141 10.72070312 C2.24436432 11.84536987 2.26753723 12.97003662 2.29141235 14.12878418 C2.3112619 15.3340979 2.33111145 16.53941162 2.3515625 17.78125 C2.37471527 19.02749146 2.39786804 20.27373291 2.42172241 21.55773926 C2.48146016 24.86341754 2.53665948 28.16913664 2.59051514 31.47491455 C2.62496864 33.49815819 2.66331641 35.52128867 2.703125 37.54443359 C2.77915596 41.4357934 2.84774022 45.32721387 2.9140625 49.21875 C2.93796051 50.42406372 2.96185852 51.62937744 2.98648071 52.87121582 C3.0033493 53.99588257 3.0202179 55.12054932 3.03759766 56.27929688 C3.06305161 57.75891907 3.06305161 57.75891907 3.08901978 59.26843262 C3 62 3 62 2.45077515 64.70129395 C1.80410378 67.05293296 1.80410378 67.05293296 2.75 69.5 C2.87375 70.7375 2.87375 70.7375 3 72 C0.5625 74.8125 0.5625 74.8125 -2 77 C-3.32 76.34 -4.64 75.68 -6 75 C-5.360625 74.071875 -4.72125 73.14375 -4.0625 72.1875 C-1.19135606 67.75027754 -0.86386469 64.78985158 -0.79467773 59.60083008 C-0.78477814 58.95665634 -0.77487854 58.3124826 -0.76467896 57.64878845 C-0.73312533 55.5224066 -0.70833095 53.39600242 -0.68359375 51.26953125 C-0.66301891 49.79407678 -0.6420223 48.31862814 -0.62062073 46.84318542 C-0.56545474 42.96180949 -0.51602138 39.08038085 -0.46777344 35.19891357 C-0.41751842 31.23737909 -0.36185324 27.27592106 -0.30664062 23.31445312 C-0.19912601 15.54303351 -0.09766623 7.77155028 0 0 Z " fill="#A3CAFE" transform="translate(429,627)"/>
<path d="M0 0 C0 0.66 0 1.32 0 2 C-0.66 2 -1.32 2 -2 2 C-2.33 2.99 -2.66 3.98 -3 5 C-3.639375 5.309375 -4.27875 5.61875 -4.9375 5.9375 C-7.489354 7.25209145 -7.87307058 8.42416132 -9 11 C-9.66 11.66 -10.32 12.32 -11 13 C-11.99 13 -12.98 13 -14 13 C-14.33 13.66 -14.66 14.32 -15 15 C-15.66 15 -16.32 15 -17 15 C-17 10.30441297 -15.44584651 8.02061693 -12.3125 4.75 C-4.73323456 -2.36661728 -4.73323456 -2.36661728 0 0 Z " fill="#BBD5F9" transform="translate(448,608)"/>
<path d="M0 0 C1.32417976 3.97253927 0.15341066 6.01385713 -1 10 C-1.32047153 13.36994684 -1.32047153 13.36994684 -1.31884766 16.85327148 C-1.32889328 17.49802933 -1.3389389 18.14278717 -1.34928894 18.80708313 C-1.37987148 20.91174528 -1.39708546 23.01628177 -1.4140625 25.12109375 C-1.43279431 26.59083621 -1.4523692 28.06056815 -1.4727478 29.5302887 C-1.52386263 33.3787106 -1.56359812 37.22716728 -1.60089111 41.07574463 C-1.64106101 45.01086893 -1.6920938 48.94585111 -1.7421875 52.88085938 C-1.83870193 60.58714173 -1.92318413 68.29349343 -2 76 C-2.33 76 -2.66 76 -3 76 C-3.06955307 66.8291416 -3.12283813 57.6583742 -3.15543652 48.48730946 C-3.17108322 44.22866808 -3.19230318 39.97020734 -3.22631836 35.71166992 C-3.25894752 31.60086482 -3.27686051 27.49023332 -3.28463173 23.3793087 C-3.29016887 21.81203161 -3.30098165 20.24476387 -3.31719017 18.67756081 C-3.33901228 16.47990107 -3.34196501 14.28295597 -3.34057617 12.08520508 C-3.34723801 10.83500076 -3.35389984 9.58479645 -3.36076355 8.29670715 C-2.97347953 4.75765228 -2.05863015 2.86394925 0 0 Z " fill="#1857C3" transform="translate(431,617)"/>
<path d="M0 0 C0.33 0 0.66 0 1 0 C1.13945552 8.20626672 1.24584865 16.41203263 1.31087303 24.61919403 C1.34209314 28.43080204 1.38439036 32.24159524 1.45263672 36.05273438 C1.51816948 39.73568137 1.55377604 43.41784828 1.56926346 47.10133362 C1.58028979 48.50155407 1.60182219 49.90173518 1.63438034 51.30162048 C1.81045679 59.19113538 1.74654126 64.74605537 -3.70809937 70.76965332 C-4.13442657 71.17566772 -4.56075378 71.58168213 -5 72 C-5 68.37968443 -3.8569494 67.04539702 -2 64 C-0.9124461 60.67584824 -0.8458979 57.52105729 -0.79467773 54.03808594 C-0.77473251 52.83714294 -0.75478729 51.63619995 -0.73423767 50.39886475 C-0.70916893 48.46119232 -0.70916893 48.46119232 -0.68359375 46.484375 C-0.66301037 45.14487079 -0.64201354 43.80537287 -0.62062073 42.46588135 C-0.56554291 38.94784659 -0.51607094 35.4297546 -0.46777344 31.91162109 C-0.41745375 28.31863336 -0.36182244 24.72572827 -0.30664062 21.1328125 C-0.199234 14.08861345 -0.09775051 7.0443402 0 0 Z " fill="#0550D3" transform="translate(427,632)"/>
<path d="M0 0 C0.99 0.495 0.99 0.495 2 1 C1.67 2.32 1.34 3.64 1 5 C-6.61661831 5.9436678 -14.12009335 6.13269763 -21.7890625 6.09765625 C-22.97349945 6.0962413 -24.1579364 6.09482635 -25.37826538 6.09336853 C-29.12720361 6.08781209 -32.8760801 6.07526782 -36.625 6.0625 C-39.18098872 6.05747937 -41.73697838 6.05291745 -44.29296875 6.04882812 C-50.52866658 6.03785696 -56.76432887 6.02116276 -63 6 C-63 5.67 -63 5.34 -63 5 C-62.35377686 4.99413376 -61.70755371 4.98826752 -61.04174805 4.98222351 C-54.29268559 4.9181009 -47.54409166 4.83363264 -40.79541016 4.73754883 C-38.27952262 4.70437264 -35.76356197 4.67631816 -33.24755859 4.65356445 C-29.62305656 4.61988482 -25.99922021 4.56756009 -22.375 4.51171875 C-20.69796997 4.50213387 -20.69796997 4.50213387 -18.98706055 4.49235535 C-11.74316894 4.35714805 -6.5049076 3.2524538 0 0 Z " fill="#B0D5FF" transform="translate(511,601)"/>
<path d="M0 0 C0.33 0 0.66 0 1 0 C1.6875 2.8125 1.6875 2.8125 2 6 C0.6875 7.625 0.6875 7.625 -1 9 C-1.433125 9.99 -1.433125 9.99 -1.875 11 C-3.43291989 13.76963537 -5.13368017 14.70333151 -8 16 C-10.3125 15.6875 -10.3125 15.6875 -12 15 C-11.113125 14.525625 -10.22625 14.05125 -9.3125 13.5625 C-5.02369566 10.74733696 -3.1824119 6.50394168 -1 2 C-0.67 1.34 -0.34 0.68 0 0 Z " fill="#1A5BD0" transform="translate(416,587)"/>
<path d="M0 0 C0.99 0.33 1.98 0.66 3 1 C1.68 5.62 0.36 10.24 -1 15 C-1.33 15 -1.66 15 -2 15 C-3.404124 5.08472437 -3.404124 5.08472437 -2 1 C-1.34 0.67 -0.68 0.34 0 0 Z " fill="#D1E5FA" transform="translate(203,376)"/>
<path d="M0 0 C0.66 0.66 1.32 1.32 2 2 C1.73441476 5.85098598 -0.56043348 8.16695501 -3 11 C-3 10.34 -3 9.68 -3 9 C-3.66 9 -4.32 9 -5 9 C-4.37315423 6.07471973 -3.51695295 3.58774327 -2 1 C-1.34 0.67 -0.68 0.34 0 0 Z " fill="#B5D0FD" transform="translate(413,587)"/>
<path d="M0 0 C0.33 0 0.66 0 1 0 C1.52964273 6.50872068 1.781524 11.51663705 -2.5546875 16.6953125 C-4.5201349 18.46952718 -6.44898606 19.34402499 -9 20 C-8.505 18.515 -8.505 18.515 -8 17 C-5.9375 16.3125 -5.9375 16.3125 -4 16 C-3.814375 15.1028125 -3.814375 15.1028125 -3.625 14.1875 C-3 12 -3 12 -1 9 C-0.54605448 6.72087062 -0.54605448 6.72087062 -0.375 4.3125 C-0.30023437 3.50425781 -0.22546875 2.69601562 -0.1484375 1.86328125 C-0.09945312 1.24839844 -0.05046875 0.63351562 0 0 Z " fill="#1357D1" transform="translate(515,584)"/>
<path d="M0 0 C2.56687367 3.8503105 1.83288724 5.58569763 1 10 C-0.875 10.625 -0.875 10.625 -3 11 C-3.66 10.34 -4.32 9.68 -5 9 C-4.360625 8.071875 -3.72125 7.14375 -3.0625 6.1875 C-0.91377907 3.15780057 -0.91377907 3.15780057 0 0 Z " fill="#9BBFFB" transform="translate(428,693)"/>
<path d="M0 0 C0.66 0.33 1.32 0.66 2 1 C1.67 2.32 1.34 3.64 1 5 C-4.34902924 5.59198743 -9.60884846 6.14187241 -15 6 C-15 5.67 -15 5.34 -15 5 C-14.16855469 4.80664062 -13.33710938 4.61328125 -12.48046875 4.4140625 C-11.39378906 4.15367187 -10.30710937 3.89328125 -9.1875 3.625 C-8.10855469 3.36976563 -7.02960938 3.11453125 -5.91796875 2.8515625 C-2.84466657 2.11267119 -2.84466657 2.11267119 0 0 Z " fill="#A5CAFD" transform="translate(511,601)"/>
<path d="M0 0 C-2.22697773 1.19914185 -4.33300289 2.10595546 -6.75 2.875 C-10.69808828 4.24164594 -14.30373396 6.06743451 -18 8 C-18 7.34 -18 6.68 -18 6 C-12.14429218 0.64621 -7.67140131 -0.2600475 0 0 Z " fill="#1858D3" transform="translate(224,606)"/>
<path d="M0 0 C0.0825 0.61875 0.165 1.2375 0.25 1.875 C1.23825442 4.67505419 2.40359985 4.74113932 5 6 C5.68268138 7.32520503 6.3507041 8.65812182 7 10 C7.99 10.33 8.98 10.66 10 11 C9.01 11.33 8.02 11.66 7 12 C6.34 11.67 5.68 11.34 5 11 C5 10.34 5 9.68 5 9 C3.68 8.67 2.36 8.34 1 8 C0.67 5.36 0.34 2.72 0 0 Z " fill="#1D5DD8" transform="translate(205,693)"/>
<path d="M0 0 C4.88049925 3.9419417 9.0580583 8.11950075 13 13 C12.01 13 11.02 13 10 13 C10 12.34 10 11.68 10 11 C9.01 10.67 8.02 10.34 7 10 C5.3125 8.5625 5.3125 8.5625 4 7 C4 6.34 4 5.68 4 5 C3.34 5 2.68 5 2 5 C2 4.34 2 3.68 2 3 C1.34 3 0.68 3 0 3 C0 2.01 0 1.02 0 0 Z " fill="#1859CB" transform="translate(425,378)"/>
<path d="M0 0 C-6.89715536 5.05908096 -6.89715536 5.05908096 -11.5 4.8125 C-12.7375 4.4103125 -12.7375 4.4103125 -14 4 C-12.66666667 3.33333333 -11.33333333 2.66666667 -10 2 C-9.01 1.443125 -8.02 0.88625 -7 0.3125 C-3.77334225 -1.09916277 -3.16765214 -1.01719864 0 0 Z " fill="#A6CCFC" transform="translate(410,599)"/>
<path d="M0 0 C0.67095703 0.58007812 0.67095703 0.58007812 1.35546875 1.171875 C1.96003906 1.69265625 2.56460937 2.2134375 3.1875 2.75 C3.82300781 3.29914063 4.45851563 3.84828125 5.11328125 4.4140625 C6.65368747 5.70889671 8.25673724 6.92889274 9.875 8.125 C12.12409163 10.10949261 12.68554267 11.06506494 13 14 C12.34 13.67 11.68 13.34 11 13 C11 12.34 11 11.68 11 11 C9.68 10.67 8.36 10.34 7 10 C7 9.34 7 8.68 7 8 C6.34 8 5.68 8 5 8 C5 7.34 5 6.68 5 6 C4.01 5.67 3.02 5.34 2 5 C0.8125 2.4375 0.8125 2.4375 0 0 Z " fill="#2360D1" transform="translate(502,455)"/>
<path d="M0 0 C1.98836084 2.98254126 2.34336635 4.13808808 2.6875 7.5625 C2.77386719 8.34753906 2.86023438 9.13257813 2.94921875 9.94140625 C3 12 3 12 2 14 C0.05081856 11.58301501 -1.00815254 9.81253599 -0.9765625 6.6640625 C-0.71537901 4.42635527 -0.40084514 2.21672195 0 0 Z " fill="#CCE3FC" transform="translate(201,456)"/>
<path d="M0 0 C1 3 1 3 0.3125 5.5625 C-1.16086774 8.29875437 -2.13522966 8.94958421 -5 10 C-4.56802365 5.2482602 -3.67230705 3.07999946 0 0 Z " fill="#9FC8FD" transform="translate(436,613)"/>
<path d="M0 0 C1.23922223 3.71766668 0.57018942 5.43889537 -0.4375 9.1875 C-0.72496094 10.27417969 -1.01242187 11.36085938 -1.30859375 12.48046875 C-1.65083984 13.72763672 -1.65083984 13.72763672 -2 15 C-2.33 15 -2.66 15 -3 15 C-3.55353075 4.44191344 -3.55353075 4.44191344 0 0 Z " fill="#1C5CD2" transform="translate(431,617)"/>
<path d="M0 0 C3.36704285 -0.2295711 5.41370268 -0.33943529 8.375 1.375 C8.91125 1.91125 9.4475 2.4475 10 3 C10 3.66 10 4.32 10 5 C10.66 5 11.32 5 12 5 C11.67 5.99 11.34 6.98 11 8 C9.2925002 6.71937515 7.62626404 5.38232443 6 4 C6 3.34 6 2.68 6 2 C3.03 1.505 3.03 1.505 0 1 C0 0.67 0 0.34 0 0 Z " fill="#2460D6" transform="translate(402,474)"/>
<path d="M0 0 C5.94 0.99 5.94 0.99 12 2 C12 2.33 12 2.66 12 3 C11.22914063 2.98839844 10.45828125 2.97679687 9.6640625 2.96484375 C8.66117188 2.95582031 7.65828125 2.94679688 6.625 2.9375 C5.12839844 2.92009766 5.12839844 2.92009766 3.6015625 2.90234375 C1.01567547 2.81993398 1.01567547 2.81993398 -1 4 C-0.67 2.68 -0.34 1.36 0 0 Z " fill="#B6D6FD" transform="translate(209,471)"/>
<path d="M0 0 C3.79588866 0.54226981 5.47211993 2.20127563 8 5 C7.67 5.99 7.34 6.98 7 8 C5.83035398 6.8572081 4.66435444 5.71068285 3.5 4.5625 C2.8503125 3.92441406 2.200625 3.28632813 1.53125 2.62890625 C0 1 0 1 0 0 Z " fill="#B2DAFE" transform="translate(468,420)"/>
<path d="M0 0 C2.83374881 3.20336822 3.5205537 5.78087253 4 10 C2.68 10 1.36 10 0 10 C-0.19412181 8.52168779 -0.38012131 7.04230684 -0.5625 5.5625 C-0.66691406 4.73878906 -0.77132812 3.91507813 -0.87890625 3.06640625 C-0.91886719 2.38449219 -0.95882812 1.70257812 -1 1 C-0.67 0.67 -0.34 0.34 0 0 Z " fill="#9DC2FC" transform="translate(201,688)"/>
<path d="M0 0 C0.33 1.32 0.66 2.64 1 4 C-0.32 4.99 -1.64 5.98 -3 7 C-3 6.34 -3 5.68 -3 5 C-3.66 4.67 -4.32 4.34 -5 4 C-3.35 2.68 -1.7 1.36 0 0 Z " fill="#9EC6FC" transform="translate(442,608)"/>
<path d="M0 0 C1.32 0.33 2.64 0.66 4 1 C4 1.99 4 2.98 4 4 C4.66 4 5.32 4 6 4 C5.67 4.99 5.34 5.98 5 7 C2.5 5.75 2.5 5.75 0 4 C0 2.68 0 1.36 0 0 Z " fill="#D1E3F7" transform="translate(468,416)"/>
<path d="M0 0 C1.17539996 0.92652701 2.34010577 1.86663387 3.5 2.8125 C4.1496875 3.33457031 4.799375 3.85664063 5.46875 4.39453125 C7 6 7 6 7 9 C6.34 8.67 5.68 8.34 5 8 C5 7.34 5 6.68 5 6 C4.01 5.67 3.02 5.34 2 5 C0.8125 2.4375 0.8125 2.4375 0 0 Z " fill="#1957CE" transform="translate(494,447)"/>
<path d="M0 0 C1.17539996 0.92652701 2.34010577 1.86663387 3.5 2.8125 C4.1496875 3.33457031 4.799375 3.85664063 5.46875 4.39453125 C7 6 7 6 7 9 C6.34 8.67 5.68 8.34 5 8 C5 7.34 5 6.68 5 6 C4.01 5.67 3.02 5.34 2 5 C0.8125 2.4375 0.8125 2.4375 0 0 Z " fill="#1858D0" transform="translate(478,431)"/>
<path d="M0 0 C1.17539996 0.92652701 2.34010577 1.86663387 3.5 2.8125 C4.1496875 3.33457031 4.799375 3.85664063 5.46875 4.39453125 C7 6 7 6 7 9 C6.34 8.67 5.68 8.34 5 8 C5 7.34 5 6.68 5 6 C4.01 5.67 3.02 5.34 2 5 C0.8125 2.4375 0.8125 2.4375 0 0 Z " fill="#1A57CE" transform="translate(438,391)"/>
<path d="M0 0 C0 0.66 0 1.32 0 2 C-3.96 3.98 -3.96 3.98 -8 6 C-5.82979469 1.65958937 -4.95602289 0 0 0 Z " fill="#1F5ED6" transform="translate(214,376)"/>
<path d="M0 0 C0.33 0.66 0.66 1.32 1 2 C-0.98 4.64 -2.96 7.28 -5 10 C-5 5.88168014 -2.91010261 2.91010261 0 0 Z " fill="#2361D6" transform="translate(427,694)"/>
<path d="M0 0 C0.99 0 1.98 0 3 0 C3.33 0.99 3.66 1.98 4 3 C5.99665314 4.68538601 5.99665314 4.68538601 8 6 C7.01 6.33 6.02 6.66 5 7 C2.47411298 4.63707344 1.11179163 3.33537489 0 0 Z " fill="#1456D1" transform="translate(205,463)"/>
<path d="M0 0 C1.14926266 0.95421808 2.29430541 1.91352045 3.4375 2.875 C4.07558594 3.40867187 4.71367187 3.94234375 5.37109375 4.4921875 C7 6 7 6 8 8 C7.01 8 6.02 8 5 8 C5 7.34 5 6.68 5 6 C4.01 5.67 3.02 5.34 2 5 C0.8125 2.4375 0.8125 2.4375 0 0 Z " fill="#1A58CF" transform="translate(486,439)"/>
<path d="M0 0 C1.14926266 0.95421808 2.29430541 1.91352045 3.4375 2.875 C4.07558594 3.40867187 4.71367187 3.94234375 5.37109375 4.4921875 C7 6 7 6 8 8 C7.01 8 6.02 8 5 8 C5 7.34 5 6.68 5 6 C4.01 5.67 3.02 5.34 2 5 C0.8125 2.4375 0.8125 2.4375 0 0 Z " fill="#1B59D0" transform="translate(470,423)"/>
<path d="M0 0 C1.14926266 0.95421808 2.29430541 1.91352045 3.4375 2.875 C4.07558594 3.40867187 4.71367187 3.94234375 5.37109375 4.4921875 C7 6 7 6 8 8 C7.01 8 6.02 8 5 8 C5 7.34 5 6.68 5 6 C4.01 5.67 3.02 5.34 2 5 C0.8125 2.4375 0.8125 2.4375 0 0 Z " fill="#1B57CE" transform="translate(454,407)"/>
<path d="M0 0 C1.32 0.33 2.64 0.66 4 1 C3.67 2.32 3.34 3.64 3 5 C2.01 5 1.02 5 0 5 C0 3.35 0 1.7 0 0 Z " fill="#CDE1F9" transform="translate(436,384)"/>
<path d="M0 0 C0.66 0 1.32 0 2 0 C2 0.66 2 1.32 2 2 C3.32 2.66 4.64 3.32 6 4 C5.34 4 4.68 4 4 4 C4 4.66 4 5.32 4 6 C3.34 6 2.68 6 2 6 C2 5.34 2 4.68 2 4 C1.34 4 0.68 4 0 4 C0 2.68 0 1.36 0 0 Z " fill="#9AC2FC" transform="translate(208,702)"/>
<path d="M0 0 C2 3 2 3 1.8125 5.0625 C1 7 1 7 -2 9 C-1.34 6.03 -0.68 3.06 0 0 Z " fill="#A2C8FE" transform="translate(428,693)"/>
<path d="M0 0 C3.6 5.4 3.6 5.4 5 8 C4.67 8.66 4.34 9.32 4 10 C2 8.375 2 8.375 0 6 C-0.25 2.75 -0.25 2.75 0 0 Z " fill="#8DB9F8" transform="translate(203,459)"/>
<path d="M0 0 C1.485 0.99 1.485 0.99 3 2 C3 2.66 3 3.32 3 4 C3.99 4.33 4.98 4.66 6 5 C4.02 5.33 2.04 5.66 0 6 C0 4.02 0 2.04 0 0 Z " fill="#DBE6FD" transform="translate(208,369)"/>
</svg>
